%TF.GenerationSoftware,KiCad,Pcbnew,10.0.1*%
%TF.CreationDate,2026-05-27T03:20:34-04:00*%
%TF.ProjectId,SynthPass,53796e74-6850-4617-9373-2e6b69636164,rev?*%
%TF.SameCoordinates,Original*%
%TF.FileFunction,Paste,Top*%
%TF.FilePolarity,Positive*%
%FSLAX46Y46*%
G04 Gerber Fmt 4.6, Leading zero omitted, Abs format (unit mm)*
G04 Created by KiCad (PCBNEW 10.0.1) date 2026-05-27 03:20:34*
%MOMM*%
%LPD*%
G01*
G04 APERTURE LIST*
G04 Aperture macros list*
%AMRoundRect*
0 Rectangle with rounded corners*
0 $1 Rounding radius*
0 $2 $3 $4 $5 $6 $7 $8 $9 X,Y pos of 4 corners*
0 Add a 4 corners polygon primitive as box body*
4,1,4,$2,$3,$4,$5,$6,$7,$8,$9,$2,$3,0*
0 Add four circle primitives for the rounded corners*
1,1,$1+$1,$2,$3*
1,1,$1+$1,$4,$5*
1,1,$1+$1,$6,$7*
1,1,$1+$1,$8,$9*
0 Add four rect primitives between the rounded corners*
20,1,$1+$1,$2,$3,$4,$5,0*
20,1,$1+$1,$4,$5,$6,$7,0*
20,1,$1+$1,$6,$7,$8,$9,0*
20,1,$1+$1,$8,$9,$2,$3,0*%
G04 Aperture macros list end*
%ADD10RoundRect,0.150000X0.470000X-0.150000X0.470000X0.150000X-0.470000X0.150000X-0.470000X-0.150000X0*%
%ADD11RoundRect,0.075000X0.545000X-0.075000X0.545000X0.075000X-0.545000X0.075000X-0.545000X-0.075000X0*%
%ADD12RoundRect,0.140000X0.140000X0.170000X-0.140000X0.170000X-0.140000X-0.170000X0.140000X-0.170000X0*%
%ADD13RoundRect,0.140000X-0.140000X-0.170000X0.140000X-0.170000X0.140000X0.170000X-0.140000X0.170000X0*%
%ADD14RoundRect,0.250000X0.750000X-0.275000X0.750000X0.275000X-0.750000X0.275000X-0.750000X-0.275000X0*%
%ADD15RoundRect,0.135000X-0.185000X0.135000X-0.185000X-0.135000X0.185000X-0.135000X0.185000X0.135000X0*%
%ADD16R,0.500000X0.900000*%
%ADD17RoundRect,0.250000X-0.450000X-0.350000X0.450000X-0.350000X0.450000X0.350000X-0.450000X0.350000X0*%
%ADD18RoundRect,0.150000X0.150000X0.625000X-0.150000X0.625000X-0.150000X-0.625000X0.150000X-0.625000X0*%
%ADD19RoundRect,0.250000X0.350000X0.650000X-0.350000X0.650000X-0.350000X-0.650000X0.350000X-0.650000X0*%
%ADD20R,0.810000X0.220000*%
%ADD21R,0.220000X0.810000*%
G04 APERTURE END LIST*
D10*
%TO.C,P1*%
X162050000Y-64220000D03*
X162050000Y-63420000D03*
D11*
X162050000Y-62270000D03*
X162050000Y-61270000D03*
X162050000Y-60770000D03*
X162050000Y-59770000D03*
D10*
X162050000Y-58620000D03*
X162050000Y-57820000D03*
X162050000Y-57820000D03*
X162050000Y-58620000D03*
D11*
X162050000Y-59270000D03*
X162050000Y-60270000D03*
X162050000Y-61770000D03*
X162050000Y-62770000D03*
D10*
X162050000Y-63420000D03*
X162050000Y-64220000D03*
%TD*%
D12*
%TO.C,C3*%
X157879981Y-65532121D03*
X156919981Y-65532121D03*
%TD*%
D13*
%TO.C,C1*%
X159211766Y-64626253D03*
X160171766Y-64626253D03*
%TD*%
D14*
%TO.C,SW1*%
X157607089Y-54999005D03*
X157607089Y-50549003D03*
%TD*%
D15*
%TO.C,R1*%
X160147402Y-52789887D03*
X160147402Y-53809885D03*
%TD*%
D16*
%TO.C,AE1*%
X155125000Y-64150000D03*
%TD*%
D17*
%TO.C,Y2*%
X156900000Y-58904529D03*
X159100000Y-58904529D03*
X159100000Y-57204529D03*
X156900000Y-57204529D03*
%TD*%
D18*
%TO.C,J1*%
X165684156Y-54684144D03*
X164684156Y-54684144D03*
X163684156Y-54684144D03*
X162684156Y-54684144D03*
D19*
X166984156Y-50809144D03*
X161384156Y-50809144D03*
%TD*%
D12*
%TO.C,C4*%
X157871156Y-64593798D03*
X156911156Y-64593798D03*
%TD*%
D20*
%TO.C,U2*%
X157181105Y-61200001D03*
X157181105Y-61600000D03*
X157181105Y-62000000D03*
X157181105Y-62400000D03*
X157181104Y-62800000D03*
D21*
X157831105Y-63450000D03*
X158231105Y-63450000D03*
X158631105Y-63450000D03*
X159031105Y-63449999D03*
X159431105Y-63450000D03*
D20*
X160081105Y-62800000D03*
X160081105Y-62400000D03*
X160081106Y-62000000D03*
X160081105Y-61600000D03*
X160081105Y-61200000D03*
D21*
X159431105Y-60550000D03*
X159031105Y-60550000D03*
X158631105Y-60550000D03*
X158231105Y-60550000D03*
X157831105Y-60550000D03*
%TD*%
M02*
