M48
; DRILL file KiCad 10.0.1 date 2026-05-27T03:20:34
; FORMAT={-:-/ absolute / inch / decimal}
; #@! TF.CreationDate,2026-05-27T03:20:34-04:00
; #@! TF.GenerationSoftware,Kicad,Pcbnew,10.0.1
; #@! TF.FileFunction,Plated,1,4,PTH
FMAT,2
INCH
; #@! TA.AperFunction,Plated,PTH,ViaDrill
T1C0.0157
; #@! TA.AperFunction,Plated,PTH,ComponentDrill
T2C0.0236
%
G90
G05
T1
X6.1173Y-2.4104
X6.1176Y-2.3736
X6.1181Y-2.4843
X6.1207Y-2.5744
X6.1225Y-2.0417
X6.1226Y-2.268
X6.1232Y-1.9803
X6.1235Y-2.1161
X6.1256Y-2.1942
X6.1438Y-2.5455
X6.1457Y-2.4646
X6.1811Y-2.1142
X6.1851Y-2.5037
X6.1859Y-2.3822
X6.189Y-2.0354
X6.2278Y-2.4234
X6.2278Y-2.4585
X6.2483Y-2.5768
X6.2598Y-2.1142
X6.2621Y-2.4234
X6.2628Y-2.4585
X6.2835Y-1.9803
X6.2992Y-2.0354
X6.3045Y-2.575
X6.3055Y-2.1543
X6.3095Y-2.3765
X6.3109Y-2.2967
X6.3361Y-2.5381
X6.3386Y-2.2205
X6.3543Y-2.1535
X6.396Y-2.0829
X6.4252Y-1.9803
X6.4638Y-2.3543
X6.4638Y-2.3937
X6.4646Y-2.4961
X6.4904Y-2.5748
X6.4961Y-2.0866
X6.5Y-2.4252
X6.5118Y-1.9803
X6.5472Y-2.3386
X6.6063Y-2.0748
X6.6063Y-2.1654
X6.6063Y-2.2795
X6.6063Y-2.4055
X6.6063Y-2.5236
T2
G00X6.3819Y-2.2323
M15
G01X6.4252Y-2.2323
M16
G05
G00X6.3819Y-2.5724
M15
G01X6.4252Y-2.5724
M16
G05
G00X6.5531Y-2.2323
M15
G01X6.5846Y-2.2323
M16
G05
G00X6.5531Y-2.5724
M15
G01X6.5846Y-2.5724
M16
G05
M30
