%TF.GenerationSoftware,KiCad,Pcbnew,10.0.1*%
%TF.CreationDate,2026-05-27T03:20:34-04:00*%
%TF.ProjectId,SynthPass,53796e74-6850-4617-9373-2e6b69636164,rev?*%
%TF.SameCoordinates,Original*%
%TF.FileFunction,Legend,Top*%
%TF.FilePolarity,Positive*%
%FSLAX46Y46*%
G04 Gerber Fmt 4.6, Leading zero omitted, Abs format (unit mm)*
G04 Created by KiCad (PCBNEW 10.0.1) date 2026-05-27 03:20:34*
%MOMM*%
%LPD*%
G01*
G04 APERTURE LIST*
G04 Aperture macros list*
%AMRoundRect*
0 Rectangle with rounded corners*
0 $1 Rounding radius*
0 $2 $3 $4 $5 $6 $7 $8 $9 X,Y pos of 4 corners*
0 Add a 4 corners polygon primitive as box body*
4,1,4,$2,$3,$4,$5,$6,$7,$8,$9,$2,$3,0*
0 Add four circle primitives for the rounded corners*
1,1,$1+$1,$2,$3*
1,1,$1+$1,$4,$5*
1,1,$1+$1,$6,$7*
1,1,$1+$1,$8,$9*
0 Add four rect primitives between the rounded corners*
20,1,$1+$1,$2,$3,$4,$5,0*
20,1,$1+$1,$4,$5,$6,$7,0*
20,1,$1+$1,$6,$7,$8,$9,0*
20,1,$1+$1,$8,$9,$2,$3,0*%
G04 Aperture macros list end*
%ADD10C,0.120000*%
%ADD11C,0.127000*%
%ADD12C,0.200000*%
%ADD13C,0.010000*%
%ADD14C,0.650000*%
%ADD15RoundRect,0.150000X0.470000X-0.150000X0.470000X0.150000X-0.470000X0.150000X-0.470000X-0.150000X0*%
%ADD16RoundRect,0.075000X0.545000X-0.075000X0.545000X0.075000X-0.545000X0.075000X-0.545000X-0.075000X0*%
%ADD17O,2.100000X1.000000*%
%ADD18O,1.800000X1.000000*%
%ADD19RoundRect,0.140000X0.140000X0.170000X-0.140000X0.170000X-0.140000X-0.170000X0.140000X-0.170000X0*%
%ADD20RoundRect,0.140000X-0.140000X-0.170000X0.140000X-0.170000X0.140000X0.170000X-0.140000X0.170000X0*%
%ADD21RoundRect,0.250000X0.750000X-0.275000X0.750000X0.275000X-0.750000X0.275000X-0.750000X-0.275000X0*%
%ADD22RoundRect,0.135000X-0.185000X0.135000X-0.185000X-0.135000X0.185000X-0.135000X0.185000X0.135000X0*%
%ADD23R,0.500000X0.900000*%
%ADD24RoundRect,0.250000X-0.450000X-0.350000X0.450000X-0.350000X0.450000X0.350000X-0.450000X0.350000X0*%
%ADD25RoundRect,0.150000X0.150000X0.625000X-0.150000X0.625000X-0.150000X-0.625000X0.150000X-0.625000X0*%
%ADD26RoundRect,0.250000X0.350000X0.650000X-0.350000X0.650000X-0.350000X-0.650000X0.350000X-0.650000X0*%
G04 APERTURE END LIST*
%TO.C,P1*%
D10*
X163925000Y-65600001D02*
X165845000Y-65600001D01*
X165845000Y-56439999D02*
X163925000Y-56439999D01*
X167855000Y-56440000D02*
X169560000Y-56440000D01*
X169560000Y-56440000D02*
X169560000Y-65600000D01*
X169560000Y-65600000D02*
X167855000Y-65600000D01*
%TO.C,C3*%
X157507817Y-65172121D02*
X157292145Y-65172121D01*
X157507817Y-65892121D02*
X157292145Y-65892121D01*
%TO.C,C1*%
X159583930Y-64266253D02*
X159799602Y-64266253D01*
X159583930Y-64986253D02*
X159799602Y-64986253D01*
%TO.C,SW1*%
X155957089Y-50674004D02*
X156347089Y-50674004D01*
X155957089Y-54874004D02*
X155957089Y-50674004D01*
X156347089Y-54874004D02*
X155957089Y-54874004D01*
X158867089Y-54874004D02*
X159257089Y-54874004D01*
X159257089Y-50674004D02*
X158867089Y-50674004D01*
X159257089Y-54874004D02*
X159257089Y-50674004D01*
%TO.C,R1*%
X159767402Y-53146245D02*
X159767402Y-53453527D01*
X160527402Y-53146245D02*
X160527402Y-53453527D01*
%TO.C,Y2*%
X155940000Y-56344528D02*
X155940000Y-59764530D01*
X155940000Y-59764530D02*
X160060000Y-59764530D01*
%TO.C,J1*%
X161074156Y-51969144D02*
X161074156Y-54469145D01*
X161074156Y-54469145D02*
X162124156Y-54469145D01*
X166124156Y-49999144D02*
X162244156Y-49999144D01*
X166244156Y-54469145D02*
X166244156Y-55459144D01*
X167294156Y-51969144D02*
X167294156Y-54469145D01*
X167294156Y-54469145D02*
X166244156Y-54469145D01*
%TO.C,C4*%
X157498992Y-64233798D02*
X157283320Y-64233798D01*
X157498992Y-64953798D02*
X157283320Y-64953798D01*
%TO.C,U2*%
D11*
X157131105Y-60499999D02*
X157131105Y-60770000D01*
X157131105Y-60499999D02*
X157401105Y-60499999D01*
X157131105Y-63500000D02*
X157131105Y-63230000D01*
X157131105Y-63500000D02*
X157401105Y-63500000D01*
X160131105Y-60500000D02*
X159861105Y-60500000D01*
X160131105Y-60500000D02*
X160131105Y-60770000D01*
X160131105Y-63500000D02*
X159861105Y-63500000D01*
X160131105Y-63500000D02*
X160131105Y-63229999D01*
D12*
X156901105Y-60180000D02*
G75*
G02*
X156701105Y-60180000I-100000J0D01*
G01*
X156701105Y-60180000D02*
G75*
G02*
X156901105Y-60180000I100000J0D01*
G01*
%TD*%
%LPC*%
D13*
%TO.C,U2*%
X157626105Y-62160001D02*
X156726104Y-62160000D01*
X156726104Y-61840000D01*
X157626105Y-61839999D01*
X157626105Y-62160001D01*
G36*
X157626105Y-62160001D02*
G01*
X156726104Y-62160000D01*
X156726104Y-61840000D01*
X157626105Y-61839999D01*
X157626105Y-62160001D01*
G37*
X157626105Y-61360000D02*
X156726105Y-61360000D01*
X156726105Y-61040000D01*
X157626105Y-61040000D01*
X157626105Y-61360000D01*
G36*
X157626105Y-61360000D02*
G01*
X156726105Y-61360000D01*
X156726105Y-61040000D01*
X157626105Y-61040000D01*
X157626105Y-61360000D01*
G37*
X157626105Y-61760000D02*
X156726105Y-61760000D01*
X156726105Y-61440000D01*
X157626105Y-61440000D01*
X157626105Y-61760000D01*
G36*
X157626105Y-61760000D02*
G01*
X156726105Y-61760000D01*
X156726105Y-61440000D01*
X157626105Y-61440000D01*
X157626105Y-61760000D01*
G37*
X157626105Y-62560000D02*
X156726105Y-62560000D01*
X156726105Y-62240000D01*
X157626105Y-62240000D01*
X157626105Y-62560000D01*
G36*
X157626105Y-62560000D02*
G01*
X156726105Y-62560000D01*
X156726105Y-62240000D01*
X157626105Y-62240000D01*
X157626105Y-62560000D01*
G37*
X157626105Y-62960000D02*
X156726105Y-62960000D01*
X156726105Y-62640000D01*
X157626105Y-62640000D01*
X157626105Y-62960000D01*
G36*
X157626105Y-62960000D02*
G01*
X156726105Y-62960000D01*
X156726105Y-62640000D01*
X157626105Y-62640000D01*
X157626105Y-62960000D01*
G37*
X157991105Y-61005000D02*
X157671105Y-61005000D01*
X157671105Y-60095000D01*
X157991105Y-60095000D01*
X157991105Y-61005000D01*
G36*
X157991105Y-61005000D02*
G01*
X157671105Y-61005000D01*
X157671105Y-60095000D01*
X157991105Y-60095000D01*
X157991105Y-61005000D01*
G37*
X157991105Y-63905000D02*
X157671105Y-63905000D01*
X157671105Y-62995000D01*
X157991105Y-62995000D01*
X157991105Y-63905000D01*
G36*
X157991105Y-63905000D02*
G01*
X157671105Y-63905000D01*
X157671105Y-62995000D01*
X157991105Y-62995000D01*
X157991105Y-63905000D01*
G37*
X159531105Y-62900000D02*
X157731105Y-62900000D01*
X157731105Y-61100000D01*
X159531105Y-61100000D01*
X159531105Y-62900000D01*
G36*
X159531105Y-62900000D02*
G01*
X157731105Y-62900000D01*
X157731105Y-61100000D01*
X159531105Y-61100000D01*
X159531105Y-62900000D01*
G37*
X158391105Y-61005000D02*
X158071105Y-61005000D01*
X158071105Y-60095001D01*
X158391105Y-60095000D01*
X158391105Y-61005000D01*
G36*
X158391105Y-61005000D02*
G01*
X158071105Y-61005000D01*
X158071105Y-60095001D01*
X158391105Y-60095000D01*
X158391105Y-61005000D01*
G37*
X158391105Y-63905000D02*
X158071105Y-63904999D01*
X158071105Y-62995000D01*
X158391105Y-62995000D01*
X158391105Y-63905000D01*
G36*
X158391105Y-63905000D02*
G01*
X158071105Y-63904999D01*
X158071105Y-62995000D01*
X158391105Y-62995000D01*
X158391105Y-63905000D01*
G37*
X158791105Y-61005000D02*
X158471105Y-61005000D01*
X158471105Y-60095000D01*
X158791104Y-60095000D01*
X158791105Y-61005000D01*
G36*
X158791105Y-61005000D02*
G01*
X158471105Y-61005000D01*
X158471105Y-60095000D01*
X158791104Y-60095000D01*
X158791105Y-61005000D01*
G37*
X158791104Y-63905000D02*
X158471105Y-63905000D01*
X158471105Y-62995000D01*
X158791105Y-62995000D01*
X158791104Y-63905000D01*
G36*
X158791104Y-63905000D02*
G01*
X158471105Y-63905000D01*
X158471105Y-62995000D01*
X158791105Y-62995000D01*
X158791104Y-63905000D01*
G37*
X159191105Y-61005000D02*
X158871105Y-61005000D01*
X158871105Y-60095000D01*
X159191105Y-60095000D01*
X159191105Y-61005000D01*
G36*
X159191105Y-61005000D02*
G01*
X158871105Y-61005000D01*
X158871105Y-60095000D01*
X159191105Y-60095000D01*
X159191105Y-61005000D01*
G37*
X159191105Y-63905000D02*
X158871105Y-63905000D01*
X158871105Y-62995000D01*
X159191105Y-62995000D01*
X159191105Y-63905000D01*
G36*
X159191105Y-63905000D02*
G01*
X158871105Y-63905000D01*
X158871105Y-62995000D01*
X159191105Y-62995000D01*
X159191105Y-63905000D01*
G37*
X159591105Y-63905000D02*
X159271106Y-63905000D01*
X159271105Y-62995000D01*
X159591105Y-62995000D01*
X159591105Y-63905000D01*
G36*
X159591105Y-63905000D02*
G01*
X159271106Y-63905000D01*
X159271105Y-62995000D01*
X159591105Y-62995000D01*
X159591105Y-63905000D01*
G37*
X159591105Y-61005000D02*
X159271105Y-61005000D01*
X159271106Y-60095000D01*
X159591105Y-60095000D01*
X159591105Y-61005000D01*
G36*
X159591105Y-61005000D02*
G01*
X159271105Y-61005000D01*
X159271106Y-60095000D01*
X159591105Y-60095000D01*
X159591105Y-61005000D01*
G37*
X160536105Y-61760000D02*
X159636105Y-61759999D01*
X159636105Y-61440000D01*
X160536105Y-61440000D01*
X160536105Y-61760000D01*
G36*
X160536105Y-61760000D02*
G01*
X159636105Y-61759999D01*
X159636105Y-61440000D01*
X160536105Y-61440000D01*
X160536105Y-61760000D01*
G37*
X160536105Y-62160000D02*
X159636105Y-62160000D01*
X159636105Y-61840000D01*
X160536105Y-61840000D01*
X160536105Y-62160000D01*
G36*
X160536105Y-62160000D02*
G01*
X159636105Y-62160000D01*
X159636105Y-61840000D01*
X160536105Y-61840000D01*
X160536105Y-62160000D01*
G37*
X160536105Y-62560000D02*
X159636105Y-62560000D01*
X159636105Y-62240000D01*
X160536105Y-62240000D01*
X160536105Y-62560000D01*
G36*
X160536105Y-62560000D02*
G01*
X159636105Y-62560000D01*
X159636105Y-62240000D01*
X160536105Y-62240000D01*
X160536105Y-62560000D01*
G37*
X160536105Y-62640000D02*
X160536105Y-62960000D01*
X159636106Y-62960000D01*
X159636105Y-62639999D01*
X160536105Y-62640000D01*
G36*
X160536105Y-62640000D02*
G01*
X160536105Y-62960000D01*
X159636106Y-62960000D01*
X159636105Y-62639999D01*
X160536105Y-62640000D01*
G37*
X160536105Y-61360000D02*
X159636105Y-61360000D01*
X159636106Y-61040000D01*
X160536105Y-61040000D01*
X160536105Y-61360000D01*
G36*
X160536105Y-61360000D02*
G01*
X159636105Y-61360000D01*
X159636106Y-61040000D01*
X160536105Y-61040000D01*
X160536105Y-61360000D01*
G37*
%TD*%
D14*
%TO.C,P1*%
X163170000Y-63910000D03*
X163170000Y-58130000D03*
D15*
X162050000Y-64220000D03*
X162050000Y-63420000D03*
D16*
X162050000Y-62270000D03*
X162050000Y-61270000D03*
X162050000Y-60770000D03*
X162050000Y-59770000D03*
D15*
X162050000Y-58620000D03*
X162050000Y-57820000D03*
X162050000Y-57820000D03*
X162050000Y-58620000D03*
D16*
X162050000Y-59270000D03*
X162050000Y-60270000D03*
X162050000Y-61770000D03*
X162050000Y-62770000D03*
D15*
X162050000Y-63420000D03*
X162050000Y-64220000D03*
D17*
X162650000Y-65340000D03*
D18*
X166850000Y-65340000D03*
D17*
X162650000Y-56700000D03*
D18*
X166850000Y-56700000D03*
%TD*%
D19*
%TO.C,C3*%
X157879981Y-65532121D03*
X156919981Y-65532121D03*
%TD*%
D20*
%TO.C,C1*%
X159211766Y-64626253D03*
X160171766Y-64626253D03*
%TD*%
D21*
%TO.C,SW1*%
X157607089Y-54999005D03*
X157607089Y-50549003D03*
%TD*%
D22*
%TO.C,R1*%
X160147402Y-52789887D03*
X160147402Y-53809885D03*
%TD*%
D23*
%TO.C,AE1*%
X155125000Y-64150000D03*
%TD*%
D24*
%TO.C,Y2*%
X156900000Y-58904529D03*
X159100000Y-58904529D03*
X159100000Y-57204529D03*
X156900000Y-57204529D03*
%TD*%
D25*
%TO.C,J1*%
X165684156Y-54684144D03*
X164684156Y-54684144D03*
X163684156Y-54684144D03*
X162684156Y-54684144D03*
D26*
X166984156Y-50809144D03*
X161384156Y-50809144D03*
%TD*%
D19*
%TO.C,C4*%
X157871156Y-64593798D03*
X156911156Y-64593798D03*
%TD*%
%LPD*%
M02*
