%TF.GenerationSoftware,KiCad,Pcbnew,10.0.1*%
%TF.CreationDate,2026-05-27T03:20:34-04:00*%
%TF.ProjectId,SynthPass,53796e74-6850-4617-9373-2e6b69636164,rev?*%
%TF.SameCoordinates,Original*%
%TF.FileFunction,Copper,L1,Top*%
%TF.FilePolarity,Positive*%
%FSLAX46Y46*%
G04 Gerber Fmt 4.6, Leading zero omitted, Abs format (unit mm)*
G04 Created by KiCad (PCBNEW 10.0.1) date 2026-05-27 03:20:34*
%MOMM*%
%LPD*%
G01*
G04 APERTURE LIST*
G04 Aperture macros list*
%AMRoundRect*
0 Rectangle with rounded corners*
0 $1 Rounding radius*
0 $2 $3 $4 $5 $6 $7 $8 $9 X,Y pos of 4 corners*
0 Add a 4 corners polygon primitive as box body*
4,1,4,$2,$3,$4,$5,$6,$7,$8,$9,$2,$3,0*
0 Add four circle primitives for the rounded corners*
1,1,$1+$1,$2,$3*
1,1,$1+$1,$4,$5*
1,1,$1+$1,$6,$7*
1,1,$1+$1,$8,$9*
0 Add four rect primitives between the rounded corners*
20,1,$1+$1,$2,$3,$4,$5,0*
20,1,$1+$1,$4,$5,$6,$7,0*
20,1,$1+$1,$6,$7,$8,$9,0*
20,1,$1+$1,$8,$9,$2,$3,0*%
G04 Aperture macros list end*
%TA.AperFunction,EtchedComponent*%
%ADD10C,0.000000*%
%TD*%
%TA.AperFunction,SMDPad,CuDef*%
%ADD11RoundRect,0.150000X0.470000X-0.150000X0.470000X0.150000X-0.470000X0.150000X-0.470000X-0.150000X0*%
%TD*%
%TA.AperFunction,SMDPad,CuDef*%
%ADD12RoundRect,0.075000X0.545000X-0.075000X0.545000X0.075000X-0.545000X0.075000X-0.545000X-0.075000X0*%
%TD*%
%TA.AperFunction,ComponentPad*%
%ADD13O,2.100000X1.000000*%
%TD*%
%TA.AperFunction,ComponentPad*%
%ADD14O,1.800000X1.000000*%
%TD*%
%TA.AperFunction,SMDPad,CuDef*%
%ADD15RoundRect,0.140000X0.140000X0.170000X-0.140000X0.170000X-0.140000X-0.170000X0.140000X-0.170000X0*%
%TD*%
%TA.AperFunction,SMDPad,CuDef*%
%ADD16RoundRect,0.140000X-0.140000X-0.170000X0.140000X-0.170000X0.140000X0.170000X-0.140000X0.170000X0*%
%TD*%
%TA.AperFunction,SMDPad,CuDef*%
%ADD17RoundRect,0.250000X0.750000X-0.275000X0.750000X0.275000X-0.750000X0.275000X-0.750000X-0.275000X0*%
%TD*%
%TA.AperFunction,SMDPad,CuDef*%
%ADD18RoundRect,0.135000X-0.185000X0.135000X-0.185000X-0.135000X0.185000X-0.135000X0.185000X0.135000X0*%
%TD*%
%TA.AperFunction,ConnectorPad*%
%ADD19R,0.500000X0.500000*%
%TD*%
%TA.AperFunction,SMDPad,CuDef*%
%ADD20R,0.500000X0.900000*%
%TD*%
%TA.AperFunction,SMDPad,CuDef*%
%ADD21RoundRect,0.250000X-0.450000X-0.350000X0.450000X-0.350000X0.450000X0.350000X-0.450000X0.350000X0*%
%TD*%
%TA.AperFunction,SMDPad,CuDef*%
%ADD22RoundRect,0.150000X0.150000X0.625000X-0.150000X0.625000X-0.150000X-0.625000X0.150000X-0.625000X0*%
%TD*%
%TA.AperFunction,SMDPad,CuDef*%
%ADD23RoundRect,0.250000X0.350000X0.650000X-0.350000X0.650000X-0.350000X-0.650000X0.350000X-0.650000X0*%
%TD*%
%TA.AperFunction,SMDPad,CuDef*%
%ADD24R,0.810000X0.220000*%
%TD*%
%TA.AperFunction,SMDPad,CuDef*%
%ADD25R,0.220000X0.810000*%
%TD*%
%TA.AperFunction,SMDPad,CuDef*%
%ADD26R,1.700000X1.700000*%
%TD*%
%TA.AperFunction,ViaPad*%
%ADD27C,0.800000*%
%TD*%
%TA.AperFunction,Conductor*%
%ADD28C,0.200000*%
%TD*%
%TA.AperFunction,Conductor*%
%ADD29C,0.150000*%
%TD*%
G04 APERTURE END LIST*
D10*
%TA.AperFunction,EtchedComponent*%
%TO.C,AE1*%
G36*
X154415000Y-50700000D02*
G01*
X150475000Y-50700000D01*
X150475000Y-52400000D01*
X153115000Y-52400000D01*
X153115000Y-55400000D01*
X150475000Y-55400000D01*
X150475000Y-57100000D01*
X153115000Y-57100000D01*
X153115000Y-60100000D01*
X150475000Y-60100000D01*
X150475000Y-61800000D01*
X155375000Y-61800000D01*
X155375000Y-62300000D01*
X150475000Y-62300000D01*
X150475000Y-63700000D01*
X155375000Y-63700000D01*
X155375000Y-64600000D01*
X155131785Y-64600000D01*
X149975000Y-64600000D01*
X149975000Y-64157267D01*
X154977018Y-64157267D01*
X154984908Y-64205353D01*
X155001814Y-64238245D01*
X155038584Y-64273185D01*
X155083378Y-64292847D01*
X155131785Y-64297583D01*
X155179395Y-64287742D01*
X155221797Y-64263674D01*
X155254581Y-64225731D01*
X155258935Y-64217819D01*
X155271043Y-64175156D01*
X155270300Y-64126637D01*
X155257400Y-64081122D01*
X155246787Y-64062511D01*
X155211553Y-64028868D01*
X155166368Y-64008309D01*
X155116842Y-64001778D01*
X155068583Y-64010218D01*
X155036357Y-64027112D01*
X155003687Y-64062372D01*
X154983592Y-64107682D01*
X154977018Y-64157267D01*
X149975000Y-64157267D01*
X149975000Y-59600000D01*
X152615000Y-59600000D01*
X152615000Y-57600000D01*
X149975000Y-57600000D01*
X149975000Y-54900000D01*
X152615000Y-54900000D01*
X152615000Y-52900000D01*
X149975000Y-52900000D01*
X149975000Y-50200000D01*
X154415000Y-50200000D01*
X154415000Y-50700000D01*
G37*
%TD.AperFunction*%
%TD*%
D11*
%TO.P,P1,A1,GND_A1*%
%TO.N,GND*%
X162050000Y-64220000D03*
%TO.P,P1,A4,VBUS_A4*%
%TO.N,VBUS*%
X162050000Y-63420000D03*
D12*
%TO.P,P1,A5,CC1_A5*%
%TO.N,unconnected-(P1-CC1-PadA5)*%
X162050000Y-62270000D03*
%TO.P,P1,A6,D+_A6*%
%TO.N,UDP*%
X162050000Y-61270000D03*
%TO.P,P1,A7,D-_A7*%
%TO.N,UDM*%
X162050000Y-60770000D03*
%TO.P,P1,A8*%
%TO.N,N/C*%
X162050000Y-59770000D03*
D11*
%TO.P,P1,A9,VBUS_A9*%
%TO.N,VBUS*%
X162050000Y-58620000D03*
%TO.P,P1,A12,GND_A12*%
%TO.N,GND*%
X162050000Y-57820000D03*
%TO.P,P1,B1,GND_B1*%
X162050000Y-57820000D03*
%TO.P,P1,B4,VBUS_B4*%
%TO.N,VBUS*%
X162050000Y-58620000D03*
D12*
%TO.P,P1,B5,CC2_B5*%
%TO.N,unconnected-(P1-CC2-PadB5)*%
X162050000Y-59270000D03*
%TO.P,P1,B6,D+_B6*%
%TO.N,UDP*%
X162050000Y-60270000D03*
%TO.P,P1,B7,D-_B7*%
%TO.N,UDM*%
X162050000Y-61770000D03*
%TO.P,P1,B8*%
%TO.N,N/C*%
X162050000Y-62770000D03*
D11*
%TO.P,P1,B9,VBUS_B9*%
%TO.N,VBUS*%
X162050000Y-63420000D03*
%TO.P,P1,B12,GND_B12*%
%TO.N,GND*%
X162050000Y-64220000D03*
D13*
%TO.P,P1,SH*%
%TO.N,N/C*%
X162650000Y-65340000D03*
D14*
X166850000Y-65340000D03*
D13*
X162650000Y-56700000D03*
D14*
X166850000Y-56700000D03*
%TD*%
D15*
%TO.P,C3,1*%
%TO.N,+3V3*%
X157879981Y-65532121D03*
%TO.P,C3,2*%
%TO.N,GND*%
X156919981Y-65532121D03*
%TD*%
D16*
%TO.P,C1,1*%
%TO.N,VBUS*%
X159211766Y-64626253D03*
%TO.P,C1,2*%
%TO.N,GND*%
X160171766Y-64626253D03*
%TD*%
D17*
%TO.P,SW1,1,1_1*%
%TO.N,UDP*%
X157607089Y-54999005D03*
%TO.P,SW1,2,2_2*%
%TO.N,Net-(R1-Pad1)*%
X157607089Y-50549003D03*
%TD*%
D18*
%TO.P,R1,1*%
%TO.N,Net-(R1-Pad1)*%
X160147402Y-52789887D03*
%TO.P,R1,2*%
%TO.N,+3V3*%
X160147402Y-53809885D03*
%TD*%
D19*
%TO.P,AE1,1,FEED_1*%
%TO.N,GND*%
X155125000Y-62050000D03*
D20*
%TO.P,AE1,2,PCB_Trace_2*%
%TO.N,Net-(AE1-PCB_Trace)*%
X155125000Y-64150000D03*
%TD*%
D21*
%TO.P,Y2,1,1_1*%
%TO.N,Net-(U2-XI)*%
X156900000Y-58904529D03*
%TO.P,Y2,2,2_2*%
%TO.N,GND*%
X159100000Y-58904529D03*
%TO.P,Y2,3,3_3*%
%TO.N,Net-(U2-XO)*%
X159100000Y-57204529D03*
%TO.P,Y2,4,4_4*%
%TO.N,GND*%
X156900000Y-57204529D03*
%TD*%
D22*
%TO.P,J1,1,Pin_1_1*%
%TO.N,SCL*%
X165684156Y-54684144D03*
%TO.P,J1,2,Pin_2_2*%
%TO.N,SDA*%
X164684156Y-54684144D03*
%TO.P,J1,3,Pin_3_3*%
%TO.N,VBUS*%
X163684156Y-54684144D03*
%TO.P,J1,4,Pin_4_4*%
%TO.N,GND*%
X162684156Y-54684144D03*
D23*
%TO.P,J1,MP,MountPin_MP*%
X166984156Y-50809144D03*
X161384156Y-50809144D03*
%TD*%
D15*
%TO.P,C4,1*%
%TO.N,+3V3*%
X157871156Y-64593798D03*
%TO.P,C4,2*%
%TO.N,GND*%
X156911156Y-64593798D03*
%TD*%
D24*
%TO.P,U2,1,PA3/T/R1/SCL2/SCK_/PWM3/CP0_1*%
%TO.N,SCL*%
X157181105Y-61200001D03*
%TO.P,U2,2,XO_2*%
%TO.N,Net-(U2-XO)*%
X157181105Y-61600000D03*
%TO.P,U2,3,XI_3*%
%TO.N,Net-(U2-XI)*%
X157181105Y-62000000D03*
%TO.P,U2,4,NC_4*%
%TO.N,unconnected-(U2-NC-Pad4)*%
X157181105Y-62400000D03*
%TO.P,U2,5,ANT_5*%
%TO.N,Net-(AE1-PCB_Trace)*%
X157181104Y-62800000D03*
D25*
%TO.P,U2,6,VDD33_6*%
%TO.N,+3V3*%
X157831105Y-63450000D03*
%TO.P,U2,7,VIO33_7*%
X158231105Y-63450000D03*
%TO.P,U2,8,V5_8*%
%TO.N,VBUS*%
X158631105Y-63450000D03*
%TO.P,U2,9,PA9/SDA/R5/TMR3_9*%
%TO.N,unconnected-(U2-PA9{slash}SDA{slash}R5{slash}TMR3-Pad9)*%
X159031105Y-63449999D03*
%TO.P,U2,10,PA8/SCL/T5/PWM5/RST_10*%
%TO.N,unconnected-(U2-PA8{slash}SCL{slash}T5{slash}PWM5{slash}RST-Pad10)*%
X159431105Y-63450000D03*
D24*
%TO.P,U2,11,PA0/UDM/R2/T3/SCL1_11*%
%TO.N,UDM*%
X160081105Y-62800000D03*
%TO.P,U2,12,PA1/UDP/R3/T2/SDA1_12*%
%TO.N,UDP*%
X160081105Y-62400000D03*
%TO.P,U2,13,PA4/SCS/PWM4/TMR2_13*%
%TO.N,unconnected-(U2-PA4{slash}SCS{slash}PWM4{slash}TMR2-Pad13)*%
X160081106Y-62000000D03*
%TO.P,U2,14,PA5/SCK/SCL3_14*%
%TO.N,unconnected-(U2-PA5{slash}SCK{slash}SCL3-Pad14)*%
X160081105Y-61600000D03*
%TO.P,U2,15,PA6/MISO/R4/SDA3_15*%
%TO.N,unconnected-(U2-PA6{slash}MISO{slash}R4{slash}SDA3-Pad15)*%
X160081105Y-61200000D03*
D25*
%TO.P,U2,16,PA7/MOSI/T4/PWM1/TMR/RST_/CP1_16*%
%TO.N,LED*%
X159431105Y-60550000D03*
%TO.P,U2,17,PA10/R6/T7_17*%
%TO.N,unconnected-(U2-PA10{slash}R6{slash}T7-Pad17)*%
X159031105Y-60550000D03*
%TO.P,U2,18,PA11/R7/T6_18*%
%TO.N,unconnected-(U2-PA11{slash}R7{slash}T6-Pad18)*%
X158631105Y-60550000D03*
%TO.P,U2,19,NC_19*%
%TO.N,unconnected-(U2-NC-Pad19)*%
X158231105Y-60550000D03*
%TO.P,U2,20,PA2/R/T1/SDA2/SCS_/PWM2/TMR1/CN_20*%
%TO.N,SDA*%
X157831105Y-60550000D03*
D26*
%TO.P,U2,21,GND/EPAD_21*%
%TO.N,GND*%
X158631105Y-62000000D03*
%TD*%
D27*
%TO.N,GND*%
X157100357Y-63593399D03*
X156051954Y-64656661D03*
X157200000Y-51700000D03*
X162457999Y-52904509D03*
X155510544Y-51859316D03*
X167800000Y-52700000D03*
X167800000Y-64100000D03*
X158186107Y-61555002D03*
X167800000Y-61100000D03*
X165000000Y-53000000D03*
X155400000Y-63100000D03*
X163200000Y-50300000D03*
X158186107Y-62444998D03*
X155528111Y-50300000D03*
X160134571Y-65405121D03*
X156100000Y-62600000D03*
X157000000Y-53700000D03*
X164856354Y-65400000D03*
X159000000Y-53700000D03*
X164200000Y-63400000D03*
X165100000Y-61600000D03*
X167800000Y-55000000D03*
X167800000Y-57900000D03*
X166300000Y-59400000D03*
X159600000Y-50300000D03*
X155536894Y-53747689D03*
X165400000Y-50300000D03*
X161400000Y-54700000D03*
X160296918Y-58335194D03*
X155589593Y-55732676D03*
X160937236Y-64467857D03*
X161000000Y-56400000D03*
X155387016Y-60288226D03*
X159076103Y-62444997D03*
X155513960Y-57608329D03*
X159056848Y-61555002D03*
X160000000Y-51700000D03*
X155466372Y-65389609D03*
X155380310Y-61223607D03*
%TO.N,+3V3*%
X158706617Y-65450000D03*
X160159616Y-54719635D03*
%TO.N,SCL*%
X157121103Y-60507738D03*
X164180000Y-60800000D03*
%TO.N,SDA*%
X164180000Y-59800000D03*
X160262283Y-60363525D03*
%TD*%
%TO.N,GND*%
D28*
X160171766Y-64626253D02*
X160171766Y-64849363D01*
%TO.N,VBUS*%
X162050000Y-63235000D02*
X163265000Y-63235000D01*
X159211766Y-64626253D02*
X159235632Y-64626253D01*
X160441885Y-63420000D02*
X162050000Y-63420000D01*
X163530000Y-59670000D02*
X163530000Y-59270000D01*
X159133706Y-64626253D02*
X159211766Y-64626253D01*
X162650406Y-58820000D02*
X162450406Y-58620000D01*
X164120000Y-58680000D02*
X164120000Y-56430000D01*
X159235632Y-64626253D02*
X160441885Y-63420000D01*
X163530000Y-59270000D02*
X163297590Y-59037590D01*
X162450406Y-58620000D02*
X162050000Y-58620000D01*
X163297590Y-59037590D02*
X162970000Y-59037590D01*
X158657935Y-64150482D02*
X159133706Y-64626253D01*
X163823852Y-56133852D02*
X163823852Y-54479604D01*
X163530000Y-59270000D02*
X164120000Y-58680000D01*
X162970000Y-59037590D02*
X162752410Y-58820000D01*
X163530000Y-62970000D02*
X163530000Y-59670000D01*
X163265000Y-63235000D02*
X163530000Y-62970000D01*
X164120000Y-56430000D02*
X163823852Y-56133852D01*
D29*
X158631105Y-63450000D02*
X158631105Y-64123652D01*
D28*
X162752410Y-58820000D02*
X162650406Y-58820000D01*
D29*
X158631105Y-64123652D02*
X158657935Y-64150482D01*
D28*
X162050000Y-63420000D02*
X162050000Y-63235000D01*
%TO.N,UDP*%
D29*
X160800000Y-61783094D02*
X161313094Y-61270000D01*
X161155000Y-60470001D02*
X161355001Y-60270000D01*
X160081105Y-62400000D02*
X160620000Y-62400000D01*
X160327171Y-57129169D02*
X160327171Y-56527171D01*
X161155000Y-61111906D02*
X161155000Y-60470001D01*
X161000000Y-59914999D02*
X161355001Y-60270000D01*
X160327171Y-56527171D02*
X158799005Y-54999005D01*
X161000000Y-57801998D02*
X161000000Y-59914999D01*
X161313094Y-61270000D02*
X162050000Y-61270000D01*
X161313094Y-61270000D02*
X161155000Y-61111906D01*
X160620000Y-62400000D02*
X160800000Y-62220000D01*
X158799005Y-54999005D02*
X157607089Y-54999005D01*
X161355001Y-60270000D02*
X162050000Y-60270000D01*
X160800000Y-62220000D02*
X160800000Y-61783094D01*
X161000000Y-57801998D02*
X160327171Y-57129169D01*
%TO.N,UDM*%
X161150000Y-62372177D02*
X161150000Y-61928069D01*
X162669999Y-61770000D02*
X162945000Y-61494999D01*
X162945000Y-61494999D02*
X162945000Y-61047946D01*
X162667054Y-60770000D02*
X162050000Y-60770000D01*
X161150000Y-61928069D02*
X161308690Y-61769379D01*
X162945000Y-61047946D02*
X162667054Y-60770000D01*
X162050000Y-61770000D02*
X162669999Y-61770000D01*
X160081105Y-62800000D02*
X160722177Y-62800000D01*
X160722177Y-62800000D02*
X161150000Y-62372177D01*
X161308690Y-61769379D02*
X161925744Y-61769379D01*
%TO.N,+3V3*%
D28*
X158706617Y-65450000D02*
X158706617Y-65318617D01*
D29*
X157831105Y-63450000D02*
X157831105Y-64553747D01*
D28*
X160159616Y-54719635D02*
X160159616Y-54645232D01*
X157831105Y-64609086D02*
X157873669Y-64651650D01*
X160147402Y-54633018D02*
X160147402Y-53809885D01*
X158039650Y-64651650D02*
X157873669Y-64651650D01*
X157962102Y-65450000D02*
X157879981Y-65532121D01*
X160159616Y-54645232D02*
X160147402Y-54633018D01*
X158706617Y-65318617D02*
X158039650Y-64651650D01*
X158231105Y-64294214D02*
X157873669Y-64651650D01*
X158706617Y-65450000D02*
X157962102Y-65450000D01*
D29*
X158231105Y-63450000D02*
X158231105Y-64294214D01*
X157831105Y-64553747D02*
X157871156Y-64593798D01*
D28*
X157879981Y-65532121D02*
X157873669Y-65525809D01*
X157873669Y-65525809D02*
X157873669Y-64651650D01*
%TO.N,Net-(R1-Pad1)*%
X159847973Y-52789887D02*
X157607089Y-50549003D01*
X160147402Y-52789887D02*
X159847973Y-52789887D01*
%TO.N,Net-(AE1-PCB_Trace)*%
D29*
X157181104Y-62800000D02*
X156886104Y-62800000D01*
X155659851Y-64026253D02*
X155125000Y-64026253D01*
X156886104Y-62800000D02*
X155659851Y-64026253D01*
%TO.N,Net-(U2-XI)*%
X156440338Y-62000000D02*
X157181105Y-62000000D01*
X156067466Y-59808787D02*
X156067466Y-61627128D01*
X157400000Y-58476253D02*
X156067466Y-59808787D01*
X156067466Y-61627128D02*
X156440338Y-62000000D01*
%TO.N,Net-(U2-XO)*%
X156598669Y-61600000D02*
X156417466Y-61418797D01*
X156417466Y-60064661D02*
X156649389Y-59832738D01*
X157521181Y-59832738D02*
X158000000Y-59353919D01*
X157181105Y-61600000D02*
X156598669Y-61600000D01*
X156417466Y-61418797D02*
X156417466Y-60064661D01*
X158000000Y-59353919D02*
X158000000Y-58304529D01*
X156649389Y-59832738D02*
X157521181Y-59832738D01*
X158000000Y-58304529D02*
X159100000Y-57204529D01*
%TO.N,SCL*%
D28*
X165200000Y-59800000D02*
X165200000Y-56400000D01*
X165823852Y-55776148D02*
X165823852Y-54479604D01*
D29*
X157121103Y-60529337D02*
X157181105Y-60589339D01*
D28*
X164200000Y-60800000D02*
X165200000Y-59800000D01*
X164180000Y-60800000D02*
X164200000Y-60800000D01*
D29*
X157121103Y-60507738D02*
X157121103Y-60529337D01*
D28*
X165200000Y-56400000D02*
X165823852Y-55776148D01*
D29*
X157181105Y-60589339D02*
X157181105Y-61200001D01*
%TO.N,SDA*%
D28*
X164180000Y-59800000D02*
X164748104Y-59231896D01*
D29*
X158039862Y-59830534D02*
X157831105Y-60039291D01*
D28*
X164748104Y-55992764D02*
X164823852Y-55917016D01*
X164748104Y-59231896D02*
X164748104Y-55992764D01*
D29*
X157831105Y-60039291D02*
X157831105Y-60550000D01*
X160262283Y-60363525D02*
X159729292Y-59830534D01*
D28*
X164823852Y-55917016D02*
X164823852Y-54479604D01*
D29*
X159729292Y-59830534D02*
X158039862Y-59830534D01*
%TD*%
%TA.AperFunction,Conductor*%
%TO.N,GND*%
G36*
X157463644Y-63130185D02*
G01*
X157509399Y-63182989D01*
X157520605Y-63234500D01*
X157520605Y-63874752D01*
X157532236Y-63933227D01*
X157532237Y-63933229D01*
X157532238Y-63933231D01*
X157534704Y-63936922D01*
X157540356Y-63954970D01*
X157550582Y-63970881D01*
X157555031Y-64001829D01*
X157555585Y-64003596D01*
X157555605Y-64005816D01*
X157555605Y-64066446D01*
X157535920Y-64133485D01*
X157519287Y-64154127D01*
X157447931Y-64225483D01*
X157397183Y-64334312D01*
X157390656Y-64383896D01*
X157390656Y-64803692D01*
X157390657Y-64803698D01*
X157397184Y-64853285D01*
X157397185Y-64853287D01*
X157397185Y-64853288D01*
X157447932Y-64962114D01*
X157465509Y-64979691D01*
X157498994Y-65041014D01*
X157494010Y-65110706D01*
X157465509Y-65155053D01*
X157456757Y-65163804D01*
X157406008Y-65272635D01*
X157399481Y-65322219D01*
X157399481Y-65322220D01*
X157399481Y-65529057D01*
X157399482Y-65725500D01*
X157379798Y-65792539D01*
X157326994Y-65838294D01*
X157275482Y-65849500D01*
X155124000Y-65849500D01*
X155056961Y-65829815D01*
X155011206Y-65777011D01*
X155000000Y-65725500D01*
X155000000Y-64924500D01*
X155019685Y-64857461D01*
X155072489Y-64811706D01*
X155124000Y-64800500D01*
X155394750Y-64800500D01*
X155394751Y-64800499D01*
X155409568Y-64797552D01*
X155453229Y-64788868D01*
X155453229Y-64788867D01*
X155453231Y-64788867D01*
X155519552Y-64744552D01*
X155563867Y-64678231D01*
X155563867Y-64678229D01*
X155563868Y-64678229D01*
X155575499Y-64619752D01*
X155575500Y-64619750D01*
X155575500Y-64425753D01*
X155595185Y-64358714D01*
X155647989Y-64312959D01*
X155699500Y-64301753D01*
X155714650Y-64301753D01*
X155714651Y-64301753D01*
X155815909Y-64259810D01*
X155893408Y-64182311D01*
X155893407Y-64182311D01*
X155951976Y-64123742D01*
X156928901Y-63146819D01*
X156990224Y-63113334D01*
X157016582Y-63110500D01*
X157396605Y-63110500D01*
X157463644Y-63130185D01*
G37*
%TD.AperFunction*%
%TA.AperFunction,Conductor*%
G36*
X161192754Y-63722188D02*
G01*
X161198640Y-63721047D01*
X161225896Y-63731920D01*
X161254042Y-63740185D01*
X161259397Y-63745284D01*
X161263536Y-63746936D01*
X161287923Y-63772450D01*
X161290805Y-63776487D01*
X161373514Y-63859196D01*
X161373515Y-63859196D01*
X161373517Y-63859198D01*
X161478607Y-63910573D01*
X161505498Y-63914491D01*
X161546739Y-63920500D01*
X162481864Y-63920500D01*
X162548903Y-63940185D01*
X162594658Y-63992989D01*
X162601636Y-64012399D01*
X162607961Y-64036002D01*
X162633719Y-64132136D01*
X162634498Y-64133485D01*
X162709485Y-64263365D01*
X162816635Y-64370515D01*
X162816636Y-64370516D01*
X162816638Y-64370517D01*
X162881756Y-64408113D01*
X162929972Y-64458680D01*
X162943194Y-64527287D01*
X162917226Y-64592152D01*
X162860312Y-64632680D01*
X162819756Y-64639500D01*
X162031005Y-64639500D01*
X161895677Y-64666418D01*
X161895667Y-64666421D01*
X161768195Y-64719221D01*
X161768182Y-64719228D01*
X161653458Y-64795885D01*
X161653454Y-64795888D01*
X161555888Y-64893454D01*
X161555885Y-64893458D01*
X161479228Y-65008182D01*
X161479221Y-65008195D01*
X161426421Y-65135667D01*
X161426418Y-65135677D01*
X161399500Y-65271004D01*
X161399500Y-65271007D01*
X161399500Y-65408993D01*
X161399500Y-65408995D01*
X161399499Y-65408995D01*
X161426418Y-65544322D01*
X161426421Y-65544332D01*
X161481556Y-65677440D01*
X161479057Y-65678475D01*
X161490920Y-65735447D01*
X161465922Y-65800691D01*
X161409617Y-65842063D01*
X161367320Y-65849500D01*
X159382303Y-65849500D01*
X159315264Y-65829815D01*
X159269509Y-65777011D01*
X159259565Y-65707853D01*
X159264529Y-65689752D01*
X159264090Y-65689635D01*
X159266194Y-65681784D01*
X159307117Y-65529057D01*
X159307117Y-65370943D01*
X159285979Y-65292055D01*
X159287642Y-65222211D01*
X159326804Y-65164348D01*
X159389573Y-65137026D01*
X159391655Y-65136752D01*
X159391666Y-65136752D01*
X159441253Y-65130225D01*
X159550082Y-65079477D01*
X159634990Y-64994569D01*
X159685738Y-64885740D01*
X159692266Y-64836154D01*
X159692265Y-64645951D01*
X159711949Y-64578912D01*
X159728579Y-64558275D01*
X160530037Y-63756819D01*
X160591360Y-63723334D01*
X160617718Y-63720500D01*
X161187003Y-63720500D01*
X161192754Y-63722188D01*
G37*
%TD.AperFunction*%
%TA.AperFunction,Conductor*%
G36*
X156402778Y-49920185D02*
G01*
X156448533Y-49972989D01*
X156458477Y-50042147D01*
X156452782Y-50065447D01*
X156432539Y-50123297D01*
X156409442Y-50189304D01*
X156406589Y-50219733D01*
X156406589Y-50878272D01*
X156409442Y-50908702D01*
X156409442Y-50908704D01*
X156454295Y-51036883D01*
X156454296Y-51036885D01*
X156534939Y-51146153D01*
X156644207Y-51226796D01*
X156686934Y-51241747D01*
X156772388Y-51271649D01*
X156802819Y-51274503D01*
X156802823Y-51274503D01*
X157856256Y-51274503D01*
X157923295Y-51294188D01*
X157943937Y-51310822D01*
X159606653Y-52973538D01*
X159631354Y-53008814D01*
X159683337Y-53120291D01*
X159774669Y-53211623D01*
X159771843Y-53214448D01*
X159802572Y-53252900D01*
X159809758Y-53322399D01*
X159778229Y-53384750D01*
X159774500Y-53387980D01*
X159774669Y-53388149D01*
X159683337Y-53479480D01*
X159633333Y-53586713D01*
X159626902Y-53635568D01*
X159626902Y-53984201D01*
X159633333Y-54033056D01*
X159683337Y-54140289D01*
X159698850Y-54155802D01*
X159732335Y-54217125D01*
X159727351Y-54286817D01*
X159698852Y-54331163D01*
X159679094Y-54350921D01*
X159679091Y-54350925D01*
X159600042Y-54487844D01*
X159600039Y-54487851D01*
X159559116Y-54640578D01*
X159559116Y-54798691D01*
X159600039Y-54951418D01*
X159600042Y-54951425D01*
X159679091Y-55088344D01*
X159679095Y-55088349D01*
X159679096Y-55088351D01*
X159790900Y-55200155D01*
X159790902Y-55200156D01*
X159790906Y-55200159D01*
X159927825Y-55279208D01*
X159927832Y-55279212D01*
X160080559Y-55320135D01*
X160080561Y-55320135D01*
X160238671Y-55320135D01*
X160238673Y-55320135D01*
X160391400Y-55279212D01*
X160528332Y-55200155D01*
X160640136Y-55088351D01*
X160719193Y-54951419D01*
X160760116Y-54798692D01*
X160760116Y-54640578D01*
X160719193Y-54487851D01*
X160669544Y-54401855D01*
X160640140Y-54350925D01*
X160640134Y-54350917D01*
X160608167Y-54318950D01*
X160574682Y-54257627D01*
X160579666Y-54187935D01*
X160608169Y-54143586D01*
X160611467Y-54140289D01*
X160661470Y-54033058D01*
X160667902Y-53984201D01*
X160667902Y-53635569D01*
X160661470Y-53586712D01*
X160611467Y-53479481D01*
X160527806Y-53395820D01*
X160520135Y-53388149D01*
X160522965Y-53385318D01*
X160492257Y-53346937D01*
X160485032Y-53277442D01*
X160516526Y-53215073D01*
X160520307Y-53211795D01*
X160520135Y-53211623D01*
X160527806Y-53203952D01*
X160611467Y-53120291D01*
X160661470Y-53013060D01*
X160667902Y-52964203D01*
X160667902Y-52615571D01*
X160661470Y-52566714D01*
X160611467Y-52459483D01*
X160527806Y-52375822D01*
X160420575Y-52325819D01*
X160420573Y-52325818D01*
X160420574Y-52325818D01*
X160371719Y-52319387D01*
X160371718Y-52319387D01*
X159923086Y-52319387D01*
X159923084Y-52319387D01*
X159877104Y-52325440D01*
X159808069Y-52314674D01*
X159773239Y-52290182D01*
X158733450Y-51250393D01*
X158699965Y-51189070D01*
X158704949Y-51119378D01*
X158721358Y-51089083D01*
X158759882Y-51036885D01*
X158782308Y-50972793D01*
X158804735Y-50908704D01*
X158804735Y-50908702D01*
X158807589Y-50878272D01*
X158807589Y-50219733D01*
X158804735Y-50189304D01*
X158761397Y-50065453D01*
X158757835Y-49995677D01*
X158792564Y-49935049D01*
X158854557Y-49902822D01*
X158878439Y-49900500D01*
X168075500Y-49900500D01*
X168142539Y-49920185D01*
X168188294Y-49972989D01*
X168199500Y-50024500D01*
X168199500Y-65725500D01*
X168179815Y-65792539D01*
X168127011Y-65838294D01*
X168075500Y-65849500D01*
X167982680Y-65849500D01*
X167915641Y-65829815D01*
X167869886Y-65777011D01*
X167859942Y-65707853D01*
X167869738Y-65677976D01*
X167868444Y-65677440D01*
X167923578Y-65544332D01*
X167923580Y-65544328D01*
X167950500Y-65408993D01*
X167950500Y-65271007D01*
X167950500Y-65271004D01*
X167923581Y-65135677D01*
X167923580Y-65135676D01*
X167923580Y-65135672D01*
X167913239Y-65110706D01*
X167870778Y-65008195D01*
X167870771Y-65008182D01*
X167794114Y-64893458D01*
X167794111Y-64893454D01*
X167696545Y-64795888D01*
X167696541Y-64795885D01*
X167581817Y-64719228D01*
X167581804Y-64719221D01*
X167454332Y-64666421D01*
X167454322Y-64666418D01*
X167318995Y-64639500D01*
X167318993Y-64639500D01*
X166381007Y-64639500D01*
X166381005Y-64639500D01*
X166245677Y-64666418D01*
X166245667Y-64666421D01*
X166118195Y-64719221D01*
X166118182Y-64719228D01*
X166003458Y-64795885D01*
X166003454Y-64795888D01*
X165905888Y-64893454D01*
X165905885Y-64893458D01*
X165829228Y-65008182D01*
X165829221Y-65008195D01*
X165776421Y-65135667D01*
X165776418Y-65135677D01*
X165749500Y-65271004D01*
X165749500Y-65271007D01*
X165749500Y-65408993D01*
X165749500Y-65408995D01*
X165749499Y-65408995D01*
X165776418Y-65544322D01*
X165776421Y-65544332D01*
X165831556Y-65677440D01*
X165829057Y-65678475D01*
X165840920Y-65735447D01*
X165815922Y-65800691D01*
X165759617Y-65842063D01*
X165717320Y-65849500D01*
X163932680Y-65849500D01*
X163865641Y-65829815D01*
X163819886Y-65777011D01*
X163809942Y-65707853D01*
X163819738Y-65677976D01*
X163818444Y-65677440D01*
X163873578Y-65544332D01*
X163873580Y-65544328D01*
X163900500Y-65408993D01*
X163900500Y-65271007D01*
X163900500Y-65271004D01*
X163873581Y-65135677D01*
X163873580Y-65135676D01*
X163873580Y-65135672D01*
X163863239Y-65110706D01*
X163820778Y-65008195D01*
X163820771Y-65008182D01*
X163744114Y-64893458D01*
X163744111Y-64893454D01*
X163646545Y-64795888D01*
X163646541Y-64795885D01*
X163531817Y-64719228D01*
X163531808Y-64719223D01*
X163407523Y-64667743D01*
X163353120Y-64623902D01*
X163331055Y-64557608D01*
X163348334Y-64489908D01*
X163392974Y-64445796D01*
X163523365Y-64370515D01*
X163630515Y-64263365D01*
X163706281Y-64132135D01*
X163745500Y-63985766D01*
X163745500Y-63834234D01*
X163706281Y-63687865D01*
X163630515Y-63556635D01*
X163587106Y-63513226D01*
X163553621Y-63451903D01*
X163558605Y-63382211D01*
X163587104Y-63337866D01*
X163770460Y-63154511D01*
X163810022Y-63085988D01*
X163830500Y-63009562D01*
X163830500Y-62930438D01*
X163830500Y-61489634D01*
X163850185Y-61422595D01*
X163902989Y-61376840D01*
X163972147Y-61366896D01*
X163986572Y-61369854D01*
X164100943Y-61400500D01*
X164100946Y-61400500D01*
X164259055Y-61400500D01*
X164259057Y-61400500D01*
X164411784Y-61359577D01*
X164548716Y-61280520D01*
X164660520Y-61168716D01*
X164739577Y-61031784D01*
X164780500Y-60879057D01*
X164780500Y-60720943D01*
X164780499Y-60720941D01*
X164779585Y-60713996D01*
X164790350Y-60644960D01*
X164814843Y-60610127D01*
X165052837Y-60372133D01*
X165440460Y-59984511D01*
X165480022Y-59915988D01*
X165500500Y-59839562D01*
X165500500Y-59760438D01*
X165500500Y-56575833D01*
X165520185Y-56508794D01*
X165536810Y-56488160D01*
X165548734Y-56476236D01*
X165610052Y-56442752D01*
X165679744Y-56447733D01*
X165735679Y-56489602D01*
X165760099Y-56555066D01*
X165758033Y-56588107D01*
X165749500Y-56631007D01*
X165749500Y-56768993D01*
X165749500Y-56768995D01*
X165749499Y-56768995D01*
X165776418Y-56904322D01*
X165776421Y-56904332D01*
X165829221Y-57031804D01*
X165829228Y-57031817D01*
X165905885Y-57146541D01*
X165905888Y-57146545D01*
X166003454Y-57244111D01*
X166003458Y-57244114D01*
X166118182Y-57320771D01*
X166118195Y-57320778D01*
X166245667Y-57373578D01*
X166245672Y-57373580D01*
X166245676Y-57373580D01*
X166245677Y-57373581D01*
X166381004Y-57400500D01*
X166381007Y-57400500D01*
X167318995Y-57400500D01*
X167410041Y-57382389D01*
X167454328Y-57373580D01*
X167581811Y-57320775D01*
X167696542Y-57244114D01*
X167794114Y-57146542D01*
X167870775Y-57031811D01*
X167923580Y-56904328D01*
X167950334Y-56769829D01*
X167950500Y-56768995D01*
X167950500Y-56631004D01*
X167923581Y-56495677D01*
X167923580Y-56495676D01*
X167923580Y-56495672D01*
X167913929Y-56472372D01*
X167870778Y-56368195D01*
X167870771Y-56368182D01*
X167794114Y-56253458D01*
X167794111Y-56253454D01*
X167696545Y-56155888D01*
X167696541Y-56155885D01*
X167581817Y-56079228D01*
X167581804Y-56079221D01*
X167454332Y-56026421D01*
X167454322Y-56026418D01*
X167318995Y-55999500D01*
X167318993Y-55999500D01*
X166381007Y-55999500D01*
X166381002Y-55999500D01*
X166253459Y-56024870D01*
X166183867Y-56018643D01*
X166128690Y-55975780D01*
X166105446Y-55909890D01*
X166109494Y-55871158D01*
X166124351Y-55815712D01*
X166124352Y-55815709D01*
X166124352Y-55542273D01*
X166136951Y-55487813D01*
X166137405Y-55486885D01*
X166174729Y-55410537D01*
X166184656Y-55342404D01*
X166184656Y-54025884D01*
X166174729Y-53957751D01*
X166123354Y-53852661D01*
X166123352Y-53852659D01*
X166123352Y-53852658D01*
X166040641Y-53769947D01*
X165935547Y-53718570D01*
X165867417Y-53708644D01*
X165867416Y-53708644D01*
X165500896Y-53708644D01*
X165500895Y-53708644D01*
X165432764Y-53718570D01*
X165327670Y-53769947D01*
X165271837Y-53825781D01*
X165210514Y-53859266D01*
X165140822Y-53854282D01*
X165096475Y-53825781D01*
X165040641Y-53769947D01*
X164935547Y-53718570D01*
X164867417Y-53708644D01*
X164867416Y-53708644D01*
X164500896Y-53708644D01*
X164500895Y-53708644D01*
X164432764Y-53718570D01*
X164327670Y-53769947D01*
X164271837Y-53825781D01*
X164210514Y-53859266D01*
X164140822Y-53854282D01*
X164096475Y-53825781D01*
X164040641Y-53769947D01*
X163935547Y-53718570D01*
X163867417Y-53708644D01*
X163867416Y-53708644D01*
X163500896Y-53708644D01*
X163500895Y-53708644D01*
X163432764Y-53718570D01*
X163327670Y-53769947D01*
X163244959Y-53852658D01*
X163193582Y-53957752D01*
X163183656Y-54025883D01*
X163183656Y-55342404D01*
X163193582Y-55410535D01*
X163244959Y-55515629D01*
X163327670Y-55598340D01*
X163327671Y-55598340D01*
X163327673Y-55598342D01*
X163432763Y-55649717D01*
X163432770Y-55649718D01*
X163435952Y-55650701D01*
X163439259Y-55652892D01*
X163441414Y-55653946D01*
X163441275Y-55654228D01*
X163457281Y-55664835D01*
X163480555Y-55675464D01*
X163485921Y-55683813D01*
X163494194Y-55689296D01*
X163504494Y-55712715D01*
X163518329Y-55734242D01*
X163520449Y-55748988D01*
X163522325Y-55753253D01*
X163523352Y-55769177D01*
X163523352Y-55899000D01*
X163503667Y-55966039D01*
X163450863Y-56011794D01*
X163381705Y-56021738D01*
X163375161Y-56020617D01*
X163268997Y-55999500D01*
X163268993Y-55999500D01*
X162031007Y-55999500D01*
X162031005Y-55999500D01*
X161895677Y-56026418D01*
X161895667Y-56026421D01*
X161768195Y-56079221D01*
X161768182Y-56079228D01*
X161653458Y-56155885D01*
X161653454Y-56155888D01*
X161555888Y-56253454D01*
X161555885Y-56253458D01*
X161479228Y-56368182D01*
X161479221Y-56368195D01*
X161426421Y-56495667D01*
X161426418Y-56495677D01*
X161399500Y-56631004D01*
X161399500Y-56631007D01*
X161399500Y-56768993D01*
X161399500Y-56768995D01*
X161399499Y-56768995D01*
X161426418Y-56904322D01*
X161426421Y-56904332D01*
X161479221Y-57031804D01*
X161479228Y-57031817D01*
X161555885Y-57146541D01*
X161555888Y-57146545D01*
X161653454Y-57244111D01*
X161653458Y-57244114D01*
X161768182Y-57320771D01*
X161768195Y-57320778D01*
X161895667Y-57373578D01*
X161895672Y-57373580D01*
X161895676Y-57373580D01*
X161895677Y-57373581D01*
X162031004Y-57400500D01*
X162819756Y-57400500D01*
X162886795Y-57420185D01*
X162932550Y-57472989D01*
X162942494Y-57542147D01*
X162913469Y-57605703D01*
X162881756Y-57631887D01*
X162816638Y-57669482D01*
X162816632Y-57669487D01*
X162709487Y-57776632D01*
X162709485Y-57776635D01*
X162633719Y-57907863D01*
X162631509Y-57916113D01*
X162601637Y-58027594D01*
X162565274Y-58087254D01*
X162502428Y-58117783D01*
X162481864Y-58119500D01*
X161546739Y-58119500D01*
X161478607Y-58129426D01*
X161478606Y-58129426D01*
X161453959Y-58141476D01*
X161385086Y-58153234D01*
X161320789Y-58125891D01*
X161281483Y-58068126D01*
X161275500Y-58030075D01*
X161275500Y-57747199D01*
X161275500Y-57747198D01*
X161233557Y-57645940D01*
X161156058Y-57568441D01*
X160638990Y-57051373D01*
X160605505Y-56990050D01*
X160602671Y-56963692D01*
X160602671Y-56472372D01*
X160602671Y-56472371D01*
X160560728Y-56371113D01*
X160560728Y-56371112D01*
X158955063Y-54765448D01*
X158915371Y-54749007D01*
X158905451Y-54744898D01*
X158879935Y-54734328D01*
X158825533Y-54690485D01*
X158825531Y-54690479D01*
X158806247Y-54646226D01*
X158804735Y-54639304D01*
X158759882Y-54511124D01*
X158759881Y-54511122D01*
X158679239Y-54401855D01*
X158569971Y-54321212D01*
X158569969Y-54321211D01*
X158441789Y-54276358D01*
X158411359Y-54273505D01*
X158411355Y-54273505D01*
X156802823Y-54273505D01*
X156802819Y-54273505D01*
X156772389Y-54276358D01*
X156772387Y-54276358D01*
X156644208Y-54321211D01*
X156644206Y-54321212D01*
X156534939Y-54401855D01*
X156454296Y-54511122D01*
X156454295Y-54511124D01*
X156409442Y-54639303D01*
X156409442Y-54639305D01*
X156406589Y-54669735D01*
X156406589Y-55328274D01*
X156409442Y-55358704D01*
X156409442Y-55358706D01*
X156454295Y-55486885D01*
X156454296Y-55486887D01*
X156534939Y-55596155D01*
X156644207Y-55676798D01*
X156685757Y-55691337D01*
X156772388Y-55721651D01*
X156802819Y-55724505D01*
X156802823Y-55724505D01*
X158411359Y-55724505D01*
X158441788Y-55721651D01*
X158441790Y-55721651D01*
X158520610Y-55694070D01*
X158569971Y-55676798D01*
X158679239Y-55596155D01*
X158732659Y-55523772D01*
X158788306Y-55481522D01*
X158857962Y-55476063D01*
X158919512Y-55509130D01*
X158920110Y-55509725D01*
X159602733Y-56192348D01*
X159636218Y-56253671D01*
X159631234Y-56323363D01*
X159589362Y-56379296D01*
X159523898Y-56403713D01*
X159515052Y-56404029D01*
X158595730Y-56404029D01*
X158565300Y-56406882D01*
X158565298Y-56406882D01*
X158437119Y-56451735D01*
X158437117Y-56451736D01*
X158327850Y-56532379D01*
X158247207Y-56641646D01*
X158247206Y-56641648D01*
X158202353Y-56769827D01*
X158202353Y-56769829D01*
X158199500Y-56800259D01*
X158199500Y-57608798D01*
X158203058Y-57646741D01*
X158200069Y-57647021D01*
X158196089Y-57702950D01*
X158167574Y-57747339D01*
X157998801Y-57916113D01*
X157843942Y-58070972D01*
X157766443Y-58148471D01*
X157765425Y-58150928D01*
X157755308Y-58161230D01*
X157734549Y-58172809D01*
X157716308Y-58188049D01*
X157704597Y-58189517D01*
X157694290Y-58195268D01*
X157670565Y-58193786D01*
X157646982Y-58196745D01*
X157634618Y-58191542D01*
X157624556Y-58190914D01*
X157613064Y-58182472D01*
X157593205Y-58174115D01*
X157562882Y-58151736D01*
X157562880Y-58151735D01*
X157434700Y-58106882D01*
X157404270Y-58104029D01*
X157404266Y-58104029D01*
X156395734Y-58104029D01*
X156395730Y-58104029D01*
X156365300Y-58106882D01*
X156365298Y-58106882D01*
X156237119Y-58151735D01*
X156237117Y-58151736D01*
X156127850Y-58232379D01*
X156047207Y-58341646D01*
X156047206Y-58341648D01*
X156002353Y-58469827D01*
X156002353Y-58469829D01*
X155999500Y-58500259D01*
X155999500Y-59308798D01*
X156002353Y-59339227D01*
X156014220Y-59373141D01*
X156015065Y-59389706D01*
X156020862Y-59405247D01*
X156016809Y-59423878D01*
X156017781Y-59442920D01*
X156009413Y-59457879D01*
X156006011Y-59473520D01*
X155984860Y-59501775D01*
X155911408Y-59575229D01*
X155911408Y-59575230D01*
X155833909Y-59652729D01*
X155791966Y-59753986D01*
X155791966Y-61681928D01*
X155826973Y-61766442D01*
X155826974Y-61766443D01*
X155833909Y-61783186D01*
X155833911Y-61783188D01*
X156284280Y-62233558D01*
X156284282Y-62233560D01*
X156362595Y-62265997D01*
X156385538Y-62275500D01*
X156451605Y-62275500D01*
X156456831Y-62277034D01*
X156462168Y-62275951D01*
X156489995Y-62286772D01*
X156518644Y-62295185D01*
X156522210Y-62299300D01*
X156527287Y-62301275D01*
X156544849Y-62325427D01*
X156564399Y-62347989D01*
X156566025Y-62354549D01*
X156568377Y-62357784D01*
X156571977Y-62378566D01*
X156575400Y-62392373D01*
X156575605Y-62395933D01*
X156575605Y-62529748D01*
X156586446Y-62584254D01*
X156586943Y-62592870D01*
X156584766Y-62602248D01*
X156584766Y-62624186D01*
X156575603Y-62670252D01*
X156575007Y-62676312D01*
X156573649Y-62676178D01*
X156555919Y-62736561D01*
X156539285Y-62757203D01*
X155715107Y-63581380D01*
X155653784Y-63614865D01*
X155584092Y-63609881D01*
X155528159Y-63568009D01*
X155524337Y-63562610D01*
X155519552Y-63555448D01*
X155519550Y-63555447D01*
X155519550Y-63555446D01*
X155453230Y-63511132D01*
X155453229Y-63511131D01*
X155394752Y-63499500D01*
X155394748Y-63499500D01*
X155124000Y-63499500D01*
X155056961Y-63479815D01*
X155011206Y-63427011D01*
X155000000Y-63375500D01*
X155000000Y-50024500D01*
X155019685Y-49957461D01*
X155072489Y-49911706D01*
X155124000Y-49900500D01*
X156335739Y-49900500D01*
X156402778Y-49920185D01*
G37*
%TD.AperFunction*%
%TA.AperFunction,Conductor*%
G36*
X158082577Y-61151764D02*
G01*
X158101356Y-61155500D01*
X158101357Y-61155500D01*
X158360854Y-61155500D01*
X158379632Y-61151764D01*
X158406913Y-61146338D01*
X158455297Y-61146338D01*
X158482577Y-61151764D01*
X158501356Y-61155500D01*
X158501357Y-61155500D01*
X158760854Y-61155500D01*
X158779632Y-61151764D01*
X158806913Y-61146338D01*
X158855297Y-61146338D01*
X158882577Y-61151764D01*
X158901356Y-61155500D01*
X158901357Y-61155500D01*
X159160854Y-61155500D01*
X159179632Y-61151764D01*
X159206913Y-61146338D01*
X159255297Y-61146338D01*
X159282577Y-61151764D01*
X159301356Y-61155500D01*
X159301357Y-61155500D01*
X159351605Y-61155500D01*
X159354518Y-61156355D01*
X159357467Y-61155639D01*
X159387830Y-61166137D01*
X159418644Y-61175185D01*
X159420630Y-61177477D01*
X159423501Y-61178470D01*
X159443374Y-61203725D01*
X159464399Y-61227989D01*
X159465397Y-61231712D01*
X159466708Y-61233378D01*
X159468923Y-61244863D01*
X159475040Y-61267675D01*
X159475605Y-61273572D01*
X159475605Y-61329748D01*
X159485986Y-61381940D01*
X159486584Y-61388175D01*
X159484767Y-61397617D01*
X159484767Y-61424190D01*
X159475605Y-61470252D01*
X159475605Y-61729749D01*
X159484767Y-61775814D01*
X159484767Y-61824192D01*
X159475606Y-61870251D01*
X159475606Y-62129748D01*
X159484767Y-62175808D01*
X159484767Y-62224186D01*
X159475605Y-62270250D01*
X159475605Y-62529747D01*
X159484767Y-62575810D01*
X159484793Y-62576335D01*
X159484915Y-62576571D01*
X159484908Y-62578617D01*
X159486584Y-62611825D01*
X159485986Y-62618059D01*
X159475605Y-62670252D01*
X159475605Y-62726427D01*
X159475040Y-62732325D01*
X159464159Y-62759479D01*
X159455920Y-62787539D01*
X159451318Y-62791526D01*
X159449052Y-62797182D01*
X159425214Y-62814145D01*
X159403116Y-62833294D01*
X159396188Y-62834800D01*
X159392125Y-62837693D01*
X159380328Y-62838251D01*
X159351605Y-62844500D01*
X159301356Y-62844500D01*
X159255297Y-62853661D01*
X159206919Y-62853661D01*
X159160854Y-62844499D01*
X159160853Y-62844499D01*
X158901357Y-62844499D01*
X158901356Y-62844499D01*
X158855291Y-62853661D01*
X158806913Y-62853661D01*
X158760854Y-62844500D01*
X158760853Y-62844500D01*
X158501357Y-62844500D01*
X158455295Y-62853662D01*
X158406915Y-62853662D01*
X158360853Y-62844500D01*
X158101357Y-62844500D01*
X158055295Y-62853662D01*
X158054770Y-62853688D01*
X158054535Y-62853810D01*
X158052487Y-62853803D01*
X158019280Y-62855479D01*
X158013045Y-62854881D01*
X157960853Y-62844500D01*
X157904677Y-62844500D01*
X157898779Y-62843935D01*
X157871624Y-62833054D01*
X157843565Y-62824815D01*
X157839577Y-62820213D01*
X157833922Y-62817947D01*
X157816958Y-62794109D01*
X157797810Y-62772011D01*
X157796303Y-62765083D01*
X157793411Y-62761020D01*
X157792852Y-62749223D01*
X157786604Y-62720500D01*
X157786604Y-62670252D01*
X157777442Y-62624190D01*
X157777443Y-62575807D01*
X157786605Y-62529749D01*
X157786605Y-62270250D01*
X157781297Y-62243570D01*
X157777443Y-62224191D01*
X157777443Y-62175807D01*
X157786605Y-62129749D01*
X157786605Y-61870250D01*
X157777443Y-61824193D01*
X157777443Y-61775807D01*
X157786605Y-61729749D01*
X157786605Y-61470249D01*
X157777443Y-61424191D01*
X157777416Y-61423666D01*
X157777293Y-61423427D01*
X157777299Y-61421348D01*
X157775625Y-61388173D01*
X157776220Y-61381953D01*
X157786605Y-61329749D01*
X157786605Y-61273571D01*
X157787170Y-61267674D01*
X157798050Y-61240520D01*
X157806290Y-61212461D01*
X157810892Y-61208472D01*
X157813159Y-61202817D01*
X157836994Y-61185855D01*
X157859094Y-61166706D01*
X157866022Y-61165198D01*
X157870086Y-61162307D01*
X157881880Y-61161748D01*
X157910605Y-61155500D01*
X157960854Y-61155500D01*
X157979632Y-61151764D01*
X158006913Y-61146338D01*
X158055297Y-61146338D01*
X158082577Y-61151764D01*
G37*
%TD.AperFunction*%
%TA.AperFunction,Conductor*%
G36*
X160205703Y-57397762D02*
G01*
X160212181Y-57403794D01*
X160688181Y-57879794D01*
X160721666Y-57941117D01*
X160724500Y-57967475D01*
X160724500Y-59722214D01*
X160704815Y-59789253D01*
X160652011Y-59835008D01*
X160582853Y-59844952D01*
X160538501Y-59829601D01*
X160494073Y-59803951D01*
X160494069Y-59803949D01*
X160494067Y-59803948D01*
X160341340Y-59763025D01*
X160183226Y-59763025D01*
X160148405Y-59772355D01*
X160078555Y-59770690D01*
X160028633Y-59740260D01*
X159885351Y-59596978D01*
X159885350Y-59596977D01*
X159784092Y-59555034D01*
X158397491Y-59555034D01*
X158330452Y-59535349D01*
X158284697Y-59482545D01*
X158275838Y-59420932D01*
X158275500Y-59420932D01*
X158275500Y-59418582D01*
X158274753Y-59413387D01*
X158275500Y-59409025D01*
X158275500Y-58470006D01*
X158295185Y-58402967D01*
X158311819Y-58382325D01*
X158652796Y-58041348D01*
X158714119Y-58007863D01*
X158740477Y-58005029D01*
X159604270Y-58005029D01*
X159634699Y-58002175D01*
X159634701Y-58002175D01*
X159698790Y-57979748D01*
X159762882Y-57957322D01*
X159872150Y-57876679D01*
X159952793Y-57767411D01*
X159988188Y-57666258D01*
X159997646Y-57639230D01*
X159997646Y-57639228D01*
X160000500Y-57608798D01*
X160000500Y-57491475D01*
X160020185Y-57424436D01*
X160072989Y-57378681D01*
X160142147Y-57368737D01*
X160205703Y-57397762D01*
G37*
%TD.AperFunction*%
%TD*%
M02*
