%TF.GenerationSoftware,KiCad,Pcbnew,10.0.1*%
%TF.CreationDate,2026-05-27T03:20:34-04:00*%
%TF.ProjectId,SynthPass,53796e74-6850-4617-9373-2e6b69636164,rev?*%
%TF.SameCoordinates,Original*%
%TF.FileFunction,Copper,L3,Inr*%
%TF.FilePolarity,Positive*%
%FSLAX46Y46*%
G04 Gerber Fmt 4.6, Leading zero omitted, Abs format (unit mm)*
G04 Created by KiCad (PCBNEW 10.0.1) date 2026-05-27 03:20:34*
%MOMM*%
%LPD*%
G01*
G04 APERTURE LIST*
%TA.AperFunction,ComponentPad*%
%ADD10O,2.100000X1.000000*%
%TD*%
%TA.AperFunction,ComponentPad*%
%ADD11O,1.800000X1.000000*%
%TD*%
%TA.AperFunction,ViaPad*%
%ADD12C,0.800000*%
%TD*%
%TA.AperFunction,Conductor*%
%ADD13C,0.200000*%
%TD*%
G04 APERTURE END LIST*
D10*
%TO.N,N/C*%
%TO.C,P1*%
X162650000Y-65340000D03*
D11*
X166850000Y-65340000D03*
D10*
X162650000Y-56700000D03*
D11*
X166850000Y-56700000D03*
%TD*%
D12*
%TO.N,GND*%
X157100357Y-63593399D03*
X156051954Y-64656661D03*
X157200000Y-51700000D03*
X162457999Y-52904509D03*
X155510544Y-51859316D03*
X167800000Y-52700000D03*
X167800000Y-64100000D03*
X158186107Y-61555002D03*
X167800000Y-61100000D03*
X165000000Y-53000000D03*
X155400000Y-63100000D03*
X163200000Y-50300000D03*
X158186107Y-62444998D03*
X155528111Y-50300000D03*
X160134571Y-65405121D03*
X156100000Y-62600000D03*
X157000000Y-53700000D03*
X164856354Y-65400000D03*
X159000000Y-53700000D03*
X164200000Y-63400000D03*
X165100000Y-61600000D03*
X167800000Y-55000000D03*
X167800000Y-57900000D03*
X166300000Y-59400000D03*
X159600000Y-50300000D03*
X155536894Y-53747689D03*
X165400000Y-50300000D03*
X161400000Y-54700000D03*
X160296918Y-58335194D03*
X155589593Y-55732676D03*
X160937236Y-64467857D03*
X161000000Y-56400000D03*
X155387016Y-60288226D03*
X159076103Y-62444997D03*
X155513960Y-57608329D03*
X159056848Y-61555002D03*
X160000000Y-51700000D03*
X155466372Y-65389609D03*
X155380310Y-61223607D03*
%TO.N,+3V3*%
X158706617Y-65450000D03*
X160159616Y-54719635D03*
%TO.N,SCL*%
X157121103Y-60507738D03*
X164180000Y-60800000D03*
%TO.N,SDA*%
X164180000Y-59800000D03*
X160262283Y-60363525D03*
%TD*%
%TO.N,SCL*%
D13*
X162800000Y-60800000D02*
X162400000Y-61200000D01*
X157125870Y-60534104D02*
X157121103Y-60529337D01*
X160036957Y-61200000D02*
X159371061Y-60534104D01*
X157121103Y-60529337D02*
X157121103Y-60507738D01*
X162400000Y-61200000D02*
X160036957Y-61200000D01*
X159371061Y-60534104D02*
X157125870Y-60534104D01*
X164180000Y-60800000D02*
X162800000Y-60800000D01*
%TO.N,SDA*%
X161812728Y-60487272D02*
X160262283Y-60487272D01*
X164180000Y-59800000D02*
X162500000Y-59800000D01*
X162500000Y-59800000D02*
X161812728Y-60487272D01*
%TD*%
%TA.AperFunction,Conductor*%
%TO.N,+3V3*%
G36*
X158991353Y-49920185D02*
G01*
X159037108Y-49972989D01*
X159047052Y-50042147D01*
X159042087Y-50060247D01*
X159042527Y-50060365D01*
X158999500Y-50220943D01*
X158999500Y-50379056D01*
X159040423Y-50531783D01*
X159040426Y-50531790D01*
X159119475Y-50668709D01*
X159119479Y-50668714D01*
X159119480Y-50668716D01*
X159231284Y-50780520D01*
X159231286Y-50780521D01*
X159231290Y-50780524D01*
X159327774Y-50836228D01*
X159368216Y-50859577D01*
X159520943Y-50900500D01*
X159520945Y-50900500D01*
X159679055Y-50900500D01*
X159679057Y-50900500D01*
X159831784Y-50859577D01*
X159968716Y-50780520D01*
X160080520Y-50668716D01*
X160159577Y-50531784D01*
X160200500Y-50379057D01*
X160200500Y-50220943D01*
X160159577Y-50068216D01*
X160159576Y-50068214D01*
X160157473Y-50060365D01*
X160159809Y-50059739D01*
X160153658Y-50002472D01*
X160184939Y-49939996D01*
X160245031Y-49904349D01*
X160275686Y-49900500D01*
X162524314Y-49900500D01*
X162591353Y-49920185D01*
X162637108Y-49972989D01*
X162647052Y-50042147D01*
X162642087Y-50060247D01*
X162642527Y-50060365D01*
X162599500Y-50220943D01*
X162599500Y-50379056D01*
X162640423Y-50531783D01*
X162640426Y-50531790D01*
X162719475Y-50668709D01*
X162719479Y-50668714D01*
X162719480Y-50668716D01*
X162831284Y-50780520D01*
X162831286Y-50780521D01*
X162831290Y-50780524D01*
X162927774Y-50836228D01*
X162968216Y-50859577D01*
X163120943Y-50900500D01*
X163120945Y-50900500D01*
X163279055Y-50900500D01*
X163279057Y-50900500D01*
X163431784Y-50859577D01*
X163568716Y-50780520D01*
X163680520Y-50668716D01*
X163759577Y-50531784D01*
X163800500Y-50379057D01*
X163800500Y-50220943D01*
X163759577Y-50068216D01*
X163759576Y-50068214D01*
X163757473Y-50060365D01*
X163759809Y-50059739D01*
X163753658Y-50002472D01*
X163784939Y-49939996D01*
X163845031Y-49904349D01*
X163875686Y-49900500D01*
X164724314Y-49900500D01*
X164791353Y-49920185D01*
X164837108Y-49972989D01*
X164847052Y-50042147D01*
X164842087Y-50060247D01*
X164842527Y-50060365D01*
X164799500Y-50220943D01*
X164799500Y-50379056D01*
X164840423Y-50531783D01*
X164840426Y-50531790D01*
X164919475Y-50668709D01*
X164919479Y-50668714D01*
X164919480Y-50668716D01*
X165031284Y-50780520D01*
X165031286Y-50780521D01*
X165031290Y-50780524D01*
X165127774Y-50836228D01*
X165168216Y-50859577D01*
X165320943Y-50900500D01*
X165320945Y-50900500D01*
X165479055Y-50900500D01*
X165479057Y-50900500D01*
X165631784Y-50859577D01*
X165768716Y-50780520D01*
X165880520Y-50668716D01*
X165959577Y-50531784D01*
X166000500Y-50379057D01*
X166000500Y-50220943D01*
X165959577Y-50068216D01*
X165959576Y-50068214D01*
X165957473Y-50060365D01*
X165959809Y-50059739D01*
X165953658Y-50002472D01*
X165984939Y-49939996D01*
X166045031Y-49904349D01*
X166075686Y-49900500D01*
X168075500Y-49900500D01*
X168142539Y-49920185D01*
X168188294Y-49972989D01*
X168199500Y-50024500D01*
X168199500Y-52024314D01*
X168179815Y-52091353D01*
X168127011Y-52137108D01*
X168057853Y-52147052D01*
X168039752Y-52142087D01*
X168039635Y-52142527D01*
X168031785Y-52140423D01*
X168031784Y-52140423D01*
X167879057Y-52099500D01*
X167720943Y-52099500D01*
X167568216Y-52140423D01*
X167568209Y-52140426D01*
X167431290Y-52219475D01*
X167431282Y-52219481D01*
X167319481Y-52331282D01*
X167319475Y-52331290D01*
X167240426Y-52468209D01*
X167240423Y-52468216D01*
X167199500Y-52620943D01*
X167199500Y-52779057D01*
X167211932Y-52825452D01*
X167240423Y-52931783D01*
X167240426Y-52931790D01*
X167319475Y-53068709D01*
X167319479Y-53068714D01*
X167319480Y-53068716D01*
X167431284Y-53180520D01*
X167431286Y-53180521D01*
X167431290Y-53180524D01*
X167563545Y-53256880D01*
X167568216Y-53259577D01*
X167720943Y-53300500D01*
X167720945Y-53300500D01*
X167879055Y-53300500D01*
X167879057Y-53300500D01*
X168031784Y-53259577D01*
X168031785Y-53259576D01*
X168039635Y-53257473D01*
X168040262Y-53259813D01*
X168097500Y-53253652D01*
X168159984Y-53284919D01*
X168195644Y-53345003D01*
X168199500Y-53375685D01*
X168199500Y-54324314D01*
X168179815Y-54391353D01*
X168127011Y-54437108D01*
X168057853Y-54447052D01*
X168039752Y-54442087D01*
X168039635Y-54442527D01*
X168031785Y-54440423D01*
X168031784Y-54440423D01*
X167879057Y-54399500D01*
X167720943Y-54399500D01*
X167568216Y-54440423D01*
X167568209Y-54440426D01*
X167431290Y-54519475D01*
X167431282Y-54519481D01*
X167319481Y-54631282D01*
X167319475Y-54631290D01*
X167240426Y-54768209D01*
X167240423Y-54768216D01*
X167199500Y-54920943D01*
X167199500Y-55079057D01*
X167226687Y-55180518D01*
X167240423Y-55231783D01*
X167240426Y-55231790D01*
X167319475Y-55368709D01*
X167319479Y-55368714D01*
X167319480Y-55368716D01*
X167431284Y-55480520D01*
X167431286Y-55480521D01*
X167431290Y-55480524D01*
X167564572Y-55557473D01*
X167568216Y-55559577D01*
X167720943Y-55600500D01*
X167720945Y-55600500D01*
X167879055Y-55600500D01*
X167879057Y-55600500D01*
X168031784Y-55559577D01*
X168031785Y-55559576D01*
X168039635Y-55557473D01*
X168040262Y-55559813D01*
X168097500Y-55553652D01*
X168159984Y-55584919D01*
X168195644Y-55645003D01*
X168199500Y-55675685D01*
X168199500Y-57224314D01*
X168179815Y-57291353D01*
X168127011Y-57337108D01*
X168057853Y-57347052D01*
X168039752Y-57342087D01*
X168039635Y-57342527D01*
X168031785Y-57340423D01*
X168031784Y-57340423D01*
X167887473Y-57301755D01*
X167827814Y-57265391D01*
X167797285Y-57202544D01*
X167805580Y-57133168D01*
X167816466Y-57113090D01*
X167859455Y-57048752D01*
X167870775Y-57031811D01*
X167923580Y-56904328D01*
X167950500Y-56768993D01*
X167950500Y-56631007D01*
X167950500Y-56631004D01*
X167923581Y-56495677D01*
X167923580Y-56495676D01*
X167923580Y-56495672D01*
X167916698Y-56479057D01*
X167870778Y-56368195D01*
X167870771Y-56368182D01*
X167794114Y-56253458D01*
X167794111Y-56253454D01*
X167696545Y-56155888D01*
X167696541Y-56155885D01*
X167581817Y-56079228D01*
X167581804Y-56079221D01*
X167454332Y-56026421D01*
X167454322Y-56026418D01*
X167318995Y-55999500D01*
X167318993Y-55999500D01*
X166381007Y-55999500D01*
X166381005Y-55999500D01*
X166245677Y-56026418D01*
X166245667Y-56026421D01*
X166118195Y-56079221D01*
X166118182Y-56079228D01*
X166003458Y-56155885D01*
X166003454Y-56155888D01*
X165905888Y-56253454D01*
X165905885Y-56253458D01*
X165829228Y-56368182D01*
X165829221Y-56368195D01*
X165776421Y-56495667D01*
X165776418Y-56495677D01*
X165749500Y-56631004D01*
X165749500Y-56631007D01*
X165749500Y-56768993D01*
X165749500Y-56768995D01*
X165749499Y-56768995D01*
X165776418Y-56904322D01*
X165776421Y-56904332D01*
X165829221Y-57031804D01*
X165829228Y-57031817D01*
X165905885Y-57146541D01*
X165905888Y-57146545D01*
X166003454Y-57244111D01*
X166003458Y-57244114D01*
X166118182Y-57320771D01*
X166118195Y-57320778D01*
X166245667Y-57373578D01*
X166245672Y-57373580D01*
X166245676Y-57373580D01*
X166245677Y-57373581D01*
X166381004Y-57400500D01*
X167180214Y-57400500D01*
X167247253Y-57420185D01*
X167293008Y-57472989D01*
X167302952Y-57542147D01*
X167287602Y-57586498D01*
X167283153Y-57594204D01*
X167240423Y-57668215D01*
X167240423Y-57668216D01*
X167199500Y-57820943D01*
X167199500Y-57979057D01*
X167235224Y-58112379D01*
X167240423Y-58131783D01*
X167240426Y-58131790D01*
X167319475Y-58268709D01*
X167319479Y-58268714D01*
X167319480Y-58268716D01*
X167431284Y-58380520D01*
X167431286Y-58380521D01*
X167431290Y-58380524D01*
X167564572Y-58457473D01*
X167568216Y-58459577D01*
X167720943Y-58500500D01*
X167720945Y-58500500D01*
X167879055Y-58500500D01*
X167879057Y-58500500D01*
X168031784Y-58459577D01*
X168031785Y-58459576D01*
X168039635Y-58457473D01*
X168040262Y-58459813D01*
X168097500Y-58453652D01*
X168159984Y-58484919D01*
X168195644Y-58545003D01*
X168199500Y-58575685D01*
X168199500Y-60424314D01*
X168179815Y-60491353D01*
X168127011Y-60537108D01*
X168057853Y-60547052D01*
X168039752Y-60542087D01*
X168039635Y-60542527D01*
X168031785Y-60540423D01*
X168031784Y-60540423D01*
X167879057Y-60499500D01*
X167720943Y-60499500D01*
X167568216Y-60540423D01*
X167568209Y-60540426D01*
X167431290Y-60619475D01*
X167431282Y-60619481D01*
X167319481Y-60731282D01*
X167319475Y-60731290D01*
X167240426Y-60868209D01*
X167240423Y-60868216D01*
X167199500Y-61020943D01*
X167199500Y-61179057D01*
X167232621Y-61302664D01*
X167240423Y-61331783D01*
X167240426Y-61331790D01*
X167319475Y-61468709D01*
X167319479Y-61468714D01*
X167319480Y-61468716D01*
X167431284Y-61580520D01*
X167431286Y-61580521D01*
X167431290Y-61580524D01*
X167564572Y-61657473D01*
X167568216Y-61659577D01*
X167720943Y-61700500D01*
X167720945Y-61700500D01*
X167879055Y-61700500D01*
X167879057Y-61700500D01*
X168031784Y-61659577D01*
X168031785Y-61659576D01*
X168039635Y-61657473D01*
X168040262Y-61659813D01*
X168097500Y-61653652D01*
X168159984Y-61684919D01*
X168195644Y-61745003D01*
X168199500Y-61775685D01*
X168199500Y-63424314D01*
X168179815Y-63491353D01*
X168127011Y-63537108D01*
X168057853Y-63547052D01*
X168039752Y-63542087D01*
X168039635Y-63542527D01*
X168031785Y-63540423D01*
X168031784Y-63540423D01*
X167879057Y-63499500D01*
X167720943Y-63499500D01*
X167568216Y-63540423D01*
X167568209Y-63540426D01*
X167431290Y-63619475D01*
X167431282Y-63619481D01*
X167319481Y-63731282D01*
X167319475Y-63731290D01*
X167240426Y-63868209D01*
X167240423Y-63868216D01*
X167199500Y-64020943D01*
X167199500Y-64179057D01*
X167228677Y-64287945D01*
X167240423Y-64331783D01*
X167240424Y-64331786D01*
X167310695Y-64453500D01*
X167327168Y-64521401D01*
X167304315Y-64587427D01*
X167249394Y-64630618D01*
X167203308Y-64639500D01*
X166381005Y-64639500D01*
X166245677Y-64666418D01*
X166245667Y-64666421D01*
X166118195Y-64719221D01*
X166118182Y-64719228D01*
X166003458Y-64795885D01*
X166003454Y-64795888D01*
X165905888Y-64893454D01*
X165905885Y-64893458D01*
X165829228Y-65008182D01*
X165829221Y-65008195D01*
X165776421Y-65135667D01*
X165776418Y-65135677D01*
X165749500Y-65271004D01*
X165749500Y-65271007D01*
X165749500Y-65408993D01*
X165749500Y-65408995D01*
X165749499Y-65408995D01*
X165776418Y-65544322D01*
X165776421Y-65544332D01*
X165831556Y-65677440D01*
X165830663Y-65677809D01*
X165834556Y-65704886D01*
X165840920Y-65735447D01*
X165839488Y-65739184D01*
X165840058Y-65743147D01*
X165827089Y-65771543D01*
X165815922Y-65800691D01*
X165812696Y-65803061D01*
X165811033Y-65806703D01*
X165784769Y-65823581D01*
X165759617Y-65842063D01*
X165754653Y-65842935D01*
X165752255Y-65844477D01*
X165717320Y-65849500D01*
X165505007Y-65849500D01*
X165437968Y-65829815D01*
X165392213Y-65777011D01*
X165382269Y-65707853D01*
X165397620Y-65663500D01*
X165412974Y-65636905D01*
X165415931Y-65631784D01*
X165456854Y-65479057D01*
X165456854Y-65320943D01*
X165415931Y-65168216D01*
X165405698Y-65150491D01*
X165336878Y-65031290D01*
X165336872Y-65031282D01*
X165225071Y-64919481D01*
X165225063Y-64919475D01*
X165088144Y-64840426D01*
X165088140Y-64840424D01*
X165088138Y-64840423D01*
X164935411Y-64799500D01*
X164777297Y-64799500D01*
X164624570Y-64840423D01*
X164624563Y-64840426D01*
X164487644Y-64919475D01*
X164487636Y-64919481D01*
X164375835Y-65031282D01*
X164375829Y-65031290D01*
X164296780Y-65168209D01*
X164296777Y-65168216D01*
X164255854Y-65320943D01*
X164255854Y-65479057D01*
X164293993Y-65621392D01*
X164296777Y-65631783D01*
X164296778Y-65631786D01*
X164315088Y-65663500D01*
X164331561Y-65731401D01*
X164308708Y-65797427D01*
X164253787Y-65840618D01*
X164207701Y-65849500D01*
X163932680Y-65849500D01*
X163865641Y-65829815D01*
X163819886Y-65777011D01*
X163809942Y-65707853D01*
X163819738Y-65677976D01*
X163818444Y-65677440D01*
X163873578Y-65544332D01*
X163873580Y-65544328D01*
X163888630Y-65468666D01*
X163900500Y-65408995D01*
X163900500Y-65271004D01*
X163873581Y-65135677D01*
X163873580Y-65135676D01*
X163873580Y-65135672D01*
X163855751Y-65092628D01*
X163820778Y-65008195D01*
X163820771Y-65008182D01*
X163744114Y-64893458D01*
X163744111Y-64893454D01*
X163646545Y-64795888D01*
X163646541Y-64795885D01*
X163531817Y-64719228D01*
X163531808Y-64719223D01*
X163407523Y-64667743D01*
X163353120Y-64623902D01*
X163331055Y-64557608D01*
X163348334Y-64489908D01*
X163392974Y-64445796D01*
X163523365Y-64370515D01*
X163630515Y-64263365D01*
X163706281Y-64132135D01*
X163739591Y-64007818D01*
X163775953Y-63948161D01*
X163838800Y-63917631D01*
X163908175Y-63925925D01*
X163921360Y-63932525D01*
X163968216Y-63959577D01*
X164120943Y-64000500D01*
X164120945Y-64000500D01*
X164279055Y-64000500D01*
X164279057Y-64000500D01*
X164431784Y-63959577D01*
X164568716Y-63880520D01*
X164680520Y-63768716D01*
X164759577Y-63631784D01*
X164800500Y-63479057D01*
X164800500Y-63320943D01*
X164759577Y-63168216D01*
X164727629Y-63112880D01*
X164680524Y-63031290D01*
X164680518Y-63031282D01*
X164568717Y-62919481D01*
X164568709Y-62919475D01*
X164431790Y-62840426D01*
X164431786Y-62840424D01*
X164431784Y-62840423D01*
X164279057Y-62799500D01*
X164120943Y-62799500D01*
X163968216Y-62840423D01*
X163968209Y-62840426D01*
X163831290Y-62919475D01*
X163831282Y-62919481D01*
X163719481Y-63031282D01*
X163719475Y-63031290D01*
X163640426Y-63168209D01*
X163640423Y-63168214D01*
X163601297Y-63314237D01*
X163564932Y-63373897D01*
X163502085Y-63404426D01*
X163432709Y-63396131D01*
X163419523Y-63389531D01*
X163392136Y-63373719D01*
X163318950Y-63354109D01*
X163245766Y-63334500D01*
X163094234Y-63334500D01*
X162947863Y-63373719D01*
X162816635Y-63449485D01*
X162816632Y-63449487D01*
X162709487Y-63556632D01*
X162709485Y-63556635D01*
X162633719Y-63687863D01*
X162594500Y-63834234D01*
X162594500Y-63985765D01*
X162633719Y-64132136D01*
X162669378Y-64193898D01*
X162709485Y-64263365D01*
X162816635Y-64370515D01*
X162816636Y-64370516D01*
X162816638Y-64370517D01*
X162881756Y-64408113D01*
X162929972Y-64458680D01*
X162943194Y-64527287D01*
X162917226Y-64592152D01*
X162860312Y-64632680D01*
X162819756Y-64639500D01*
X162031005Y-64639500D01*
X161895677Y-64666418D01*
X161895667Y-64666421D01*
X161768195Y-64719221D01*
X161768184Y-64719227D01*
X161705173Y-64761330D01*
X161638496Y-64782207D01*
X161571116Y-64763722D01*
X161524426Y-64711743D01*
X161513250Y-64642773D01*
X161516504Y-64626152D01*
X161537736Y-64546914D01*
X161537736Y-64388800D01*
X161496813Y-64236073D01*
X161472464Y-64193899D01*
X161417760Y-64099147D01*
X161417754Y-64099139D01*
X161305953Y-63987338D01*
X161305945Y-63987332D01*
X161169026Y-63908283D01*
X161169022Y-63908281D01*
X161169020Y-63908280D01*
X161016293Y-63867357D01*
X160858179Y-63867357D01*
X160705452Y-63908280D01*
X160705445Y-63908283D01*
X160568526Y-63987332D01*
X160568518Y-63987338D01*
X160456717Y-64099139D01*
X160456711Y-64099147D01*
X160377662Y-64236066D01*
X160377659Y-64236073D01*
X160336736Y-64388800D01*
X160336736Y-64546914D01*
X160344959Y-64577604D01*
X160365064Y-64652637D01*
X160363401Y-64722487D01*
X160324238Y-64780349D01*
X160260009Y-64807853D01*
X160221758Y-64805118D01*
X160221684Y-64805682D01*
X160213629Y-64804621D01*
X160213628Y-64804621D01*
X160055514Y-64804621D01*
X159902787Y-64845544D01*
X159902780Y-64845547D01*
X159765861Y-64924596D01*
X159765853Y-64924602D01*
X159654052Y-65036403D01*
X159654046Y-65036411D01*
X159574997Y-65173330D01*
X159574994Y-65173337D01*
X159534071Y-65326064D01*
X159534071Y-65484178D01*
X159573623Y-65631786D01*
X159574994Y-65636904D01*
X159574994Y-65636905D01*
X159590349Y-65663501D01*
X159606820Y-65731402D01*
X159583967Y-65797428D01*
X159529046Y-65840618D01*
X159482961Y-65849500D01*
X156109026Y-65849500D01*
X156041987Y-65829815D01*
X155996232Y-65777011D01*
X155986288Y-65707853D01*
X156001638Y-65663501D01*
X156016993Y-65636905D01*
X156025949Y-65621393D01*
X156066872Y-65468666D01*
X156066872Y-65369495D01*
X156086557Y-65302456D01*
X156139361Y-65256701D01*
X156158772Y-65249722D01*
X156283738Y-65216238D01*
X156420670Y-65137181D01*
X156532474Y-65025377D01*
X156611531Y-64888445D01*
X156652454Y-64735718D01*
X156652454Y-64577604D01*
X156611531Y-64424877D01*
X156580146Y-64370516D01*
X156532478Y-64287951D01*
X156532472Y-64287943D01*
X156420671Y-64176142D01*
X156420663Y-64176136D01*
X156283744Y-64097087D01*
X156283740Y-64097085D01*
X156283738Y-64097084D01*
X156131011Y-64056161D01*
X155972897Y-64056161D01*
X155820170Y-64097084D01*
X155820163Y-64097087D01*
X155683244Y-64176136D01*
X155683236Y-64176142D01*
X155571435Y-64287943D01*
X155571429Y-64287951D01*
X155492380Y-64424870D01*
X155492377Y-64424877D01*
X155451454Y-64577604D01*
X155451454Y-64676774D01*
X155445071Y-64698510D01*
X155443263Y-64721093D01*
X155435416Y-64731391D01*
X155431769Y-64743813D01*
X155414651Y-64758645D01*
X155400919Y-64776669D01*
X155385052Y-64784293D01*
X155378965Y-64789568D01*
X155369799Y-64793320D01*
X155364741Y-64795157D01*
X155234588Y-64830032D01*
X155176577Y-64863524D01*
X155166345Y-64867242D01*
X155141897Y-64868781D01*
X155118098Y-64874555D01*
X155107650Y-64870938D01*
X155096614Y-64871634D01*
X155075216Y-64859713D01*
X155052071Y-64851702D01*
X155045236Y-64843010D01*
X155035577Y-64837629D01*
X155024020Y-64816031D01*
X155008882Y-64796780D01*
X155006158Y-64782647D01*
X155002614Y-64776024D01*
X155003279Y-64767712D01*
X155000000Y-64750696D01*
X155000000Y-63775478D01*
X155019685Y-63708439D01*
X155072489Y-63662684D01*
X155141647Y-63652740D01*
X155160264Y-63657848D01*
X155160365Y-63657473D01*
X155168214Y-63659576D01*
X155168216Y-63659577D01*
X155320943Y-63700500D01*
X155320945Y-63700500D01*
X155479055Y-63700500D01*
X155479057Y-63700500D01*
X155631784Y-63659577D01*
X155768716Y-63580520D01*
X155880520Y-63468716D01*
X155959577Y-63331784D01*
X155970128Y-63292407D01*
X156006492Y-63232747D01*
X156069339Y-63202217D01*
X156089903Y-63200500D01*
X156179055Y-63200500D01*
X156179057Y-63200500D01*
X156331784Y-63159577D01*
X156419474Y-63108949D01*
X156487372Y-63092477D01*
X156553399Y-63115329D01*
X156596589Y-63170251D01*
X156603231Y-63239804D01*
X156588860Y-63278336D01*
X156540780Y-63361614D01*
X156540780Y-63361615D01*
X156499857Y-63514342D01*
X156499857Y-63672456D01*
X156515622Y-63731290D01*
X156540780Y-63825182D01*
X156540783Y-63825189D01*
X156619832Y-63962108D01*
X156619836Y-63962113D01*
X156619837Y-63962115D01*
X156731641Y-64073919D01*
X156731643Y-64073920D01*
X156731647Y-64073923D01*
X156868566Y-64152972D01*
X156868573Y-64152976D01*
X157021300Y-64193899D01*
X157021302Y-64193899D01*
X157179412Y-64193899D01*
X157179414Y-64193899D01*
X157332141Y-64152976D01*
X157469073Y-64073919D01*
X157580877Y-63962115D01*
X157659934Y-63825183D01*
X157700857Y-63672456D01*
X157700857Y-63514342D01*
X157659934Y-63361615D01*
X157644279Y-63334500D01*
X157580881Y-63224689D01*
X157580875Y-63224681D01*
X157469074Y-63112880D01*
X157469066Y-63112874D01*
X157332147Y-63033825D01*
X157332143Y-63033823D01*
X157332141Y-63033822D01*
X157179414Y-62992899D01*
X157021300Y-62992899D01*
X156868573Y-63033822D01*
X156868572Y-63033822D01*
X156780883Y-63084449D01*
X156712983Y-63100920D01*
X156646956Y-63078068D01*
X156603766Y-63023146D01*
X156597125Y-62953593D01*
X156611497Y-62915061D01*
X156612258Y-62913743D01*
X156659577Y-62831784D01*
X156700500Y-62679057D01*
X156700500Y-62520943D01*
X156659577Y-62368216D01*
X156658263Y-62365940D01*
X156580524Y-62231290D01*
X156580518Y-62231282D01*
X156468717Y-62119481D01*
X156468709Y-62119475D01*
X156331790Y-62040426D01*
X156331786Y-62040424D01*
X156331784Y-62040423D01*
X156179057Y-61999500D01*
X156020943Y-61999500D01*
X155868216Y-62040423D01*
X155868209Y-62040426D01*
X155731290Y-62119475D01*
X155731282Y-62119481D01*
X155619481Y-62231282D01*
X155619475Y-62231290D01*
X155540426Y-62368209D01*
X155540423Y-62368214D01*
X155529872Y-62407594D01*
X155493506Y-62467254D01*
X155430659Y-62497783D01*
X155410097Y-62499500D01*
X155320943Y-62499500D01*
X155168216Y-62540423D01*
X155168214Y-62540423D01*
X155160365Y-62542527D01*
X155159778Y-62540339D01*
X155101971Y-62546548D01*
X155039495Y-62515267D01*
X155003849Y-62455175D01*
X155000000Y-62424521D01*
X155000000Y-61904986D01*
X155019685Y-61837947D01*
X155072489Y-61792192D01*
X155141647Y-61782248D01*
X155156080Y-61785208D01*
X155301253Y-61824107D01*
X155301256Y-61824107D01*
X155459365Y-61824107D01*
X155459367Y-61824107D01*
X155612094Y-61783184D01*
X155749026Y-61704127D01*
X155860830Y-61592323D01*
X155939887Y-61455391D01*
X155980810Y-61302664D01*
X155980810Y-61144550D01*
X155939887Y-60991823D01*
X155884949Y-60896666D01*
X155860834Y-60854897D01*
X155860828Y-60854889D01*
X155852889Y-60846950D01*
X155819404Y-60785627D01*
X155824388Y-60715935D01*
X155852889Y-60671588D01*
X155867536Y-60656942D01*
X155946593Y-60520010D01*
X155971064Y-60428681D01*
X156520603Y-60428681D01*
X156520603Y-60586795D01*
X156559321Y-60731290D01*
X156561526Y-60739521D01*
X156561529Y-60739528D01*
X156640578Y-60876447D01*
X156640582Y-60876452D01*
X156640583Y-60876454D01*
X156752387Y-60988258D01*
X156752389Y-60988259D01*
X156752393Y-60988262D01*
X156841673Y-61039807D01*
X156889319Y-61067315D01*
X157042046Y-61108238D01*
X157042048Y-61108238D01*
X157200158Y-61108238D01*
X157200160Y-61108238D01*
X157352887Y-61067315D01*
X157489819Y-60988258D01*
X157601623Y-60876454D01*
X157601623Y-60876453D01*
X157607154Y-60870923D01*
X157668477Y-60837438D01*
X157694835Y-60834604D01*
X157770097Y-60834604D01*
X157837136Y-60854289D01*
X157882891Y-60907093D01*
X157892835Y-60976251D01*
X157863810Y-61039807D01*
X157832097Y-61065991D01*
X157817394Y-61074479D01*
X157817389Y-61074483D01*
X157705588Y-61186284D01*
X157705582Y-61186292D01*
X157626533Y-61323211D01*
X157626530Y-61323218D01*
X157585607Y-61475945D01*
X157585607Y-61634059D01*
X157615335Y-61745003D01*
X157626530Y-61786785D01*
X157626533Y-61786792D01*
X157705585Y-61923717D01*
X157706200Y-61924518D01*
X157706508Y-61925314D01*
X157709650Y-61930757D01*
X157708801Y-61931247D01*
X157731392Y-61989688D01*
X157717350Y-62058133D01*
X157706200Y-62075482D01*
X157705585Y-62076282D01*
X157626533Y-62213207D01*
X157626530Y-62213214D01*
X157585607Y-62365941D01*
X157585607Y-62524055D01*
X157626530Y-62676780D01*
X157626530Y-62676781D01*
X157626533Y-62676788D01*
X157705582Y-62813707D01*
X157705586Y-62813712D01*
X157705587Y-62813714D01*
X157817391Y-62925518D01*
X157817393Y-62925519D01*
X157817397Y-62925522D01*
X157934099Y-62992899D01*
X157954323Y-63004575D01*
X158107050Y-63045498D01*
X158107052Y-63045498D01*
X158265162Y-63045498D01*
X158265164Y-63045498D01*
X158417891Y-63004575D01*
X158554823Y-62925518D01*
X158554833Y-62925507D01*
X158555606Y-62924916D01*
X158556397Y-62924609D01*
X158561862Y-62921455D01*
X158562353Y-62922306D01*
X158620772Y-62899713D01*
X158689218Y-62913743D01*
X158706596Y-62924909D01*
X158707379Y-62925509D01*
X158707387Y-62925517D01*
X158707394Y-62925521D01*
X158707397Y-62925523D01*
X158824097Y-62992899D01*
X158844319Y-63004574D01*
X158997046Y-63045497D01*
X158997048Y-63045497D01*
X159155158Y-63045497D01*
X159155160Y-63045497D01*
X159307887Y-63004574D01*
X159444819Y-62925517D01*
X159556623Y-62813713D01*
X159635680Y-62676781D01*
X159676603Y-62524054D01*
X159676603Y-62365940D01*
X159635680Y-62213213D01*
X159604711Y-62159573D01*
X159556627Y-62076287D01*
X159556624Y-62076283D01*
X159556623Y-62076281D01*
X159555854Y-62075512D01*
X159555413Y-62074705D01*
X159551677Y-62069836D01*
X159552436Y-62069253D01*
X159522369Y-62014189D01*
X159527353Y-61944497D01*
X159536148Y-61925831D01*
X159537368Y-61923718D01*
X159616425Y-61786786D01*
X159657348Y-61634059D01*
X159657348Y-61542203D01*
X159677033Y-61475164D01*
X159729837Y-61429409D01*
X159798995Y-61419465D01*
X159844190Y-61438503D01*
X159845407Y-61436397D01*
X159912555Y-61475164D01*
X159920968Y-61480021D01*
X159997395Y-61500500D01*
X159997397Y-61500500D01*
X162439560Y-61500500D01*
X162439562Y-61500500D01*
X162515989Y-61480021D01*
X162584511Y-61440460D01*
X162640460Y-61384511D01*
X162888152Y-61136819D01*
X162949475Y-61103334D01*
X162975833Y-61100500D01*
X163588504Y-61100500D01*
X163655543Y-61120185D01*
X163695891Y-61162500D01*
X163699480Y-61168716D01*
X163811284Y-61280520D01*
X163811286Y-61280521D01*
X163811290Y-61280524D01*
X163900087Y-61331790D01*
X163948216Y-61359577D01*
X164100943Y-61400500D01*
X164100945Y-61400500D01*
X164259054Y-61400500D01*
X164259057Y-61400500D01*
X164345476Y-61377344D01*
X164415322Y-61379007D01*
X164473184Y-61418169D01*
X164500689Y-61482397D01*
X164500506Y-61513300D01*
X164499500Y-61520943D01*
X164499500Y-61679057D01*
X164529815Y-61792192D01*
X164540423Y-61831783D01*
X164540426Y-61831790D01*
X164619475Y-61968709D01*
X164619479Y-61968714D01*
X164619480Y-61968716D01*
X164731284Y-62080520D01*
X164731286Y-62080521D01*
X164731290Y-62080524D01*
X164798765Y-62119480D01*
X164868216Y-62159577D01*
X165020943Y-62200500D01*
X165020945Y-62200500D01*
X165179055Y-62200500D01*
X165179057Y-62200500D01*
X165331784Y-62159577D01*
X165468716Y-62080520D01*
X165580520Y-61968716D01*
X165659577Y-61831784D01*
X165700500Y-61679057D01*
X165700500Y-61520943D01*
X165659577Y-61368216D01*
X165621731Y-61302664D01*
X165580524Y-61231290D01*
X165580518Y-61231282D01*
X165468717Y-61119481D01*
X165468709Y-61119475D01*
X165331790Y-61040426D01*
X165331786Y-61040424D01*
X165331784Y-61040423D01*
X165179057Y-60999500D01*
X165020943Y-60999500D01*
X164934526Y-61022655D01*
X164864676Y-61020992D01*
X164806814Y-60981829D01*
X164779310Y-60917600D01*
X164779494Y-60886690D01*
X164780498Y-60879063D01*
X164780500Y-60879057D01*
X164780500Y-60720943D01*
X164739577Y-60568216D01*
X164723531Y-60540423D01*
X164660524Y-60431290D01*
X164660518Y-60431282D01*
X164616917Y-60387681D01*
X164583432Y-60326358D01*
X164588416Y-60256666D01*
X164616917Y-60212319D01*
X164620067Y-60209169D01*
X164660520Y-60168716D01*
X164739577Y-60031784D01*
X164780500Y-59879057D01*
X164780500Y-59720943D01*
X164739577Y-59568216D01*
X164734565Y-59559535D01*
X164660524Y-59431290D01*
X164660518Y-59431282D01*
X164550179Y-59320943D01*
X165699500Y-59320943D01*
X165699500Y-59479057D01*
X165734223Y-59608643D01*
X165740423Y-59631783D01*
X165740426Y-59631790D01*
X165819475Y-59768709D01*
X165819479Y-59768714D01*
X165819480Y-59768716D01*
X165931284Y-59880520D01*
X165931286Y-59880521D01*
X165931290Y-59880524D01*
X166048443Y-59948161D01*
X166068216Y-59959577D01*
X166220943Y-60000500D01*
X166220945Y-60000500D01*
X166379055Y-60000500D01*
X166379057Y-60000500D01*
X166531784Y-59959577D01*
X166668716Y-59880520D01*
X166780520Y-59768716D01*
X166859577Y-59631784D01*
X166900500Y-59479057D01*
X166900500Y-59320943D01*
X166859577Y-59168216D01*
X166859573Y-59168209D01*
X166780524Y-59031290D01*
X166780518Y-59031282D01*
X166668717Y-58919481D01*
X166668709Y-58919475D01*
X166531790Y-58840426D01*
X166531786Y-58840424D01*
X166531784Y-58840423D01*
X166379057Y-58799500D01*
X166220943Y-58799500D01*
X166068216Y-58840423D01*
X166068209Y-58840426D01*
X165931290Y-58919475D01*
X165931282Y-58919481D01*
X165819481Y-59031282D01*
X165819475Y-59031290D01*
X165740426Y-59168209D01*
X165740423Y-59168216D01*
X165699500Y-59320943D01*
X164550179Y-59320943D01*
X164548717Y-59319481D01*
X164548709Y-59319475D01*
X164411790Y-59240426D01*
X164411786Y-59240424D01*
X164411784Y-59240423D01*
X164259057Y-59199500D01*
X164100943Y-59199500D01*
X163948216Y-59240423D01*
X163948209Y-59240426D01*
X163811290Y-59319475D01*
X163811282Y-59319481D01*
X163699479Y-59431284D01*
X163695892Y-59437499D01*
X163645325Y-59485715D01*
X163588504Y-59499500D01*
X162460438Y-59499500D01*
X162422224Y-59509739D01*
X162384009Y-59519979D01*
X162384004Y-59519982D01*
X162315495Y-59559535D01*
X162315487Y-59559541D01*
X161724576Y-60150453D01*
X161663253Y-60183938D01*
X161636895Y-60186772D01*
X160925224Y-60186772D01*
X160858185Y-60167087D01*
X160817837Y-60124772D01*
X160742805Y-59994812D01*
X160742801Y-59994807D01*
X160631000Y-59883006D01*
X160630992Y-59883000D01*
X160494073Y-59803951D01*
X160494069Y-59803949D01*
X160494067Y-59803948D01*
X160341340Y-59763025D01*
X160183226Y-59763025D01*
X160030499Y-59803948D01*
X160030492Y-59803951D01*
X159893573Y-59883000D01*
X159893565Y-59883006D01*
X159781764Y-59994807D01*
X159781758Y-59994815D01*
X159702709Y-60131734D01*
X159702704Y-60131745D01*
X159687248Y-60189428D01*
X159650883Y-60249088D01*
X159588036Y-60279616D01*
X159518660Y-60271321D01*
X159505472Y-60264719D01*
X159487052Y-60254084D01*
X159487051Y-60254083D01*
X159487050Y-60254083D01*
X159410623Y-60233604D01*
X159410621Y-60233604D01*
X157727821Y-60233604D01*
X157660782Y-60213919D01*
X157620433Y-60171603D01*
X157618766Y-60168716D01*
X157601623Y-60139022D01*
X157489819Y-60027218D01*
X157489817Y-60027217D01*
X157489812Y-60027213D01*
X157352893Y-59948164D01*
X157352889Y-59948162D01*
X157352887Y-59948161D01*
X157200160Y-59907238D01*
X157042046Y-59907238D01*
X156889319Y-59948161D01*
X156889312Y-59948164D01*
X156752393Y-60027213D01*
X156752385Y-60027219D01*
X156640584Y-60139020D01*
X156640578Y-60139028D01*
X156561529Y-60275947D01*
X156561526Y-60275954D01*
X156520603Y-60428681D01*
X155971064Y-60428681D01*
X155987516Y-60367283D01*
X155987516Y-60209169D01*
X155946593Y-60056442D01*
X155911011Y-59994812D01*
X155867540Y-59919516D01*
X155867534Y-59919508D01*
X155755733Y-59807707D01*
X155755725Y-59807701D01*
X155618806Y-59728652D01*
X155618802Y-59728650D01*
X155618800Y-59728649D01*
X155466073Y-59687726D01*
X155307959Y-59687726D01*
X155156093Y-59728418D01*
X155086243Y-59726755D01*
X155028381Y-59687592D01*
X155000877Y-59623364D01*
X155000000Y-59608643D01*
X155000000Y-58256137D01*
X159696418Y-58256137D01*
X159696418Y-58414251D01*
X159719529Y-58500500D01*
X159737341Y-58566977D01*
X159737344Y-58566984D01*
X159816393Y-58703903D01*
X159816397Y-58703908D01*
X159816398Y-58703910D01*
X159928202Y-58815714D01*
X159928204Y-58815715D01*
X159928208Y-58815718D01*
X160065127Y-58894767D01*
X160065134Y-58894771D01*
X160217861Y-58935694D01*
X160217863Y-58935694D01*
X160375973Y-58935694D01*
X160375975Y-58935694D01*
X160528702Y-58894771D01*
X160665634Y-58815714D01*
X160777438Y-58703910D01*
X160856495Y-58566978D01*
X160897418Y-58414251D01*
X160897418Y-58256137D01*
X160856495Y-58103410D01*
X160828105Y-58054236D01*
X160777442Y-57966484D01*
X160777436Y-57966476D01*
X160665635Y-57854675D01*
X160665627Y-57854669D01*
X160528708Y-57775620D01*
X160528704Y-57775618D01*
X160528702Y-57775617D01*
X160375975Y-57734694D01*
X160217861Y-57734694D01*
X160065134Y-57775617D01*
X160065127Y-57775620D01*
X159928208Y-57854669D01*
X159928200Y-57854675D01*
X159816399Y-57966476D01*
X159816393Y-57966484D01*
X159737344Y-58103403D01*
X159737341Y-58103410D01*
X159696418Y-58256137D01*
X155000000Y-58256137D01*
X155000000Y-58219766D01*
X155019685Y-58152727D01*
X155072489Y-58106972D01*
X155141647Y-58097028D01*
X155185998Y-58112378D01*
X155282176Y-58167906D01*
X155434903Y-58208829D01*
X155434905Y-58208829D01*
X155593015Y-58208829D01*
X155593017Y-58208829D01*
X155745744Y-58167906D01*
X155882676Y-58088849D01*
X155994480Y-57977045D01*
X156073537Y-57840113D01*
X156114460Y-57687386D01*
X156114460Y-57529272D01*
X156073537Y-57376545D01*
X156071061Y-57372256D01*
X155994484Y-57239619D01*
X155994478Y-57239611D01*
X155882677Y-57127810D01*
X155882669Y-57127804D01*
X155745750Y-57048755D01*
X155745746Y-57048753D01*
X155745744Y-57048752D01*
X155593017Y-57007829D01*
X155434903Y-57007829D01*
X155282176Y-57048752D01*
X155282175Y-57048752D01*
X155185999Y-57104279D01*
X155118099Y-57120750D01*
X155052072Y-57097898D01*
X155008882Y-57042976D01*
X155000000Y-56996891D01*
X155000000Y-56291681D01*
X155019685Y-56224642D01*
X155072489Y-56178887D01*
X155141647Y-56168943D01*
X155205203Y-56197968D01*
X155211681Y-56204000D01*
X155220877Y-56213196D01*
X155220879Y-56213197D01*
X155220883Y-56213200D01*
X155290613Y-56253458D01*
X155357809Y-56292253D01*
X155510536Y-56333176D01*
X155510538Y-56333176D01*
X155668648Y-56333176D01*
X155668650Y-56333176D01*
X155714304Y-56320943D01*
X160399500Y-56320943D01*
X160399500Y-56479057D01*
X160403954Y-56495677D01*
X160440423Y-56631783D01*
X160440426Y-56631790D01*
X160519475Y-56768709D01*
X160519479Y-56768714D01*
X160519480Y-56768716D01*
X160631284Y-56880520D01*
X160631286Y-56880521D01*
X160631290Y-56880524D01*
X160686594Y-56912453D01*
X160768216Y-56959577D01*
X160920943Y-57000500D01*
X160920945Y-57000500D01*
X161079055Y-57000500D01*
X161079057Y-57000500D01*
X161231784Y-56959577D01*
X161284873Y-56928925D01*
X161352773Y-56912453D01*
X161418800Y-56935306D01*
X161461434Y-56988860D01*
X161479223Y-57031808D01*
X161479228Y-57031817D01*
X161555885Y-57146541D01*
X161555888Y-57146545D01*
X161653454Y-57244111D01*
X161653458Y-57244114D01*
X161768182Y-57320771D01*
X161768195Y-57320778D01*
X161895667Y-57373578D01*
X161895672Y-57373580D01*
X161895676Y-57373580D01*
X161895677Y-57373581D01*
X162031004Y-57400500D01*
X162819756Y-57400500D01*
X162886795Y-57420185D01*
X162932550Y-57472989D01*
X162942494Y-57542147D01*
X162913469Y-57605703D01*
X162881756Y-57631887D01*
X162816638Y-57669482D01*
X162816632Y-57669487D01*
X162709487Y-57776632D01*
X162709485Y-57776635D01*
X162633719Y-57907863D01*
X162614643Y-57979057D01*
X162594500Y-58054234D01*
X162594500Y-58205766D01*
X162614109Y-58278950D01*
X162633719Y-58352136D01*
X162650106Y-58380518D01*
X162709485Y-58483365D01*
X162816635Y-58590515D01*
X162947865Y-58666281D01*
X163094234Y-58705500D01*
X163094236Y-58705500D01*
X163245764Y-58705500D01*
X163245766Y-58705500D01*
X163392135Y-58666281D01*
X163523365Y-58590515D01*
X163630515Y-58483365D01*
X163706281Y-58352135D01*
X163745500Y-58205766D01*
X163745500Y-58054234D01*
X163706281Y-57907865D01*
X163630515Y-57776635D01*
X163523365Y-57669485D01*
X163392974Y-57594203D01*
X163344760Y-57543637D01*
X163331538Y-57475029D01*
X163357506Y-57410165D01*
X163407524Y-57372256D01*
X163531804Y-57320778D01*
X163531804Y-57320777D01*
X163531811Y-57320775D01*
X163646542Y-57244114D01*
X163744114Y-57146542D01*
X163820775Y-57031811D01*
X163873580Y-56904328D01*
X163900500Y-56768993D01*
X163900500Y-56631007D01*
X163900500Y-56631004D01*
X163873581Y-56495677D01*
X163873580Y-56495676D01*
X163873580Y-56495672D01*
X163866698Y-56479057D01*
X163820778Y-56368195D01*
X163820771Y-56368182D01*
X163744114Y-56253458D01*
X163744111Y-56253454D01*
X163646545Y-56155888D01*
X163646541Y-56155885D01*
X163531817Y-56079228D01*
X163531804Y-56079221D01*
X163404332Y-56026421D01*
X163404322Y-56026418D01*
X163268995Y-55999500D01*
X163268993Y-55999500D01*
X162031007Y-55999500D01*
X162031005Y-55999500D01*
X161895677Y-56026418D01*
X161895667Y-56026421D01*
X161768195Y-56079221D01*
X161768182Y-56079228D01*
X161690656Y-56131030D01*
X161623978Y-56151908D01*
X161556598Y-56133423D01*
X161514377Y-56089927D01*
X161480523Y-56031290D01*
X161480520Y-56031284D01*
X161368716Y-55919480D01*
X161368714Y-55919479D01*
X161368709Y-55919475D01*
X161231790Y-55840426D01*
X161231786Y-55840424D01*
X161231784Y-55840423D01*
X161079057Y-55799500D01*
X160920943Y-55799500D01*
X160768216Y-55840423D01*
X160768209Y-55840426D01*
X160631290Y-55919475D01*
X160631282Y-55919481D01*
X160519481Y-56031282D01*
X160519475Y-56031290D01*
X160440426Y-56168209D01*
X160440423Y-56168216D01*
X160399500Y-56320943D01*
X155714304Y-56320943D01*
X155821377Y-56292253D01*
X155958309Y-56213196D01*
X156070113Y-56101392D01*
X156149170Y-55964460D01*
X156190093Y-55811733D01*
X156190093Y-55653619D01*
X156149170Y-55500892D01*
X156137407Y-55480518D01*
X156070117Y-55363966D01*
X156070111Y-55363958D01*
X155958310Y-55252157D01*
X155958302Y-55252151D01*
X155821383Y-55173102D01*
X155821379Y-55173100D01*
X155821377Y-55173099D01*
X155668650Y-55132176D01*
X155510536Y-55132176D01*
X155357809Y-55173099D01*
X155357802Y-55173102D01*
X155220883Y-55252151D01*
X155220875Y-55252157D01*
X155211681Y-55261352D01*
X155150358Y-55294837D01*
X155080666Y-55289853D01*
X155024733Y-55247981D01*
X155000316Y-55182517D01*
X155000000Y-55173671D01*
X155000000Y-54620943D01*
X160799500Y-54620943D01*
X160799500Y-54779056D01*
X160840423Y-54931783D01*
X160840426Y-54931790D01*
X160919475Y-55068709D01*
X160919479Y-55068714D01*
X160919480Y-55068716D01*
X161031284Y-55180520D01*
X161031286Y-55180521D01*
X161031290Y-55180524D01*
X161120087Y-55231790D01*
X161168216Y-55259577D01*
X161320943Y-55300500D01*
X161320945Y-55300500D01*
X161479055Y-55300500D01*
X161479057Y-55300500D01*
X161631784Y-55259577D01*
X161768716Y-55180520D01*
X161880520Y-55068716D01*
X161959577Y-54931784D01*
X162000500Y-54779057D01*
X162000500Y-54620943D01*
X161959577Y-54468216D01*
X161890280Y-54348189D01*
X161880524Y-54331290D01*
X161880518Y-54331282D01*
X161768717Y-54219481D01*
X161768709Y-54219475D01*
X161631790Y-54140426D01*
X161631786Y-54140424D01*
X161631784Y-54140423D01*
X161479057Y-54099500D01*
X161320943Y-54099500D01*
X161168216Y-54140423D01*
X161168209Y-54140426D01*
X161031290Y-54219475D01*
X161031282Y-54219481D01*
X160919481Y-54331282D01*
X160919475Y-54331290D01*
X160840426Y-54468209D01*
X160840423Y-54468216D01*
X160799500Y-54620943D01*
X155000000Y-54620943D01*
X155000000Y-54345885D01*
X155019685Y-54278846D01*
X155072489Y-54233091D01*
X155141647Y-54223147D01*
X155185998Y-54238497D01*
X155305110Y-54307266D01*
X155457837Y-54348189D01*
X155457839Y-54348189D01*
X155615949Y-54348189D01*
X155615951Y-54348189D01*
X155768678Y-54307266D01*
X155905610Y-54228209D01*
X156017414Y-54116405D01*
X156096471Y-53979473D01*
X156137394Y-53826746D01*
X156137394Y-53668632D01*
X156124616Y-53620943D01*
X156399500Y-53620943D01*
X156399500Y-53779056D01*
X156440423Y-53931783D01*
X156440426Y-53931790D01*
X156519475Y-54068709D01*
X156519479Y-54068714D01*
X156519480Y-54068716D01*
X156631284Y-54180520D01*
X156631286Y-54180521D01*
X156631290Y-54180524D01*
X156768209Y-54259573D01*
X156768216Y-54259577D01*
X156920943Y-54300500D01*
X156920945Y-54300500D01*
X157079055Y-54300500D01*
X157079057Y-54300500D01*
X157231784Y-54259577D01*
X157368716Y-54180520D01*
X157480520Y-54068716D01*
X157559577Y-53931784D01*
X157600500Y-53779057D01*
X157600500Y-53620943D01*
X158399500Y-53620943D01*
X158399500Y-53779056D01*
X158440423Y-53931783D01*
X158440426Y-53931790D01*
X158519475Y-54068709D01*
X158519479Y-54068714D01*
X158519480Y-54068716D01*
X158631284Y-54180520D01*
X158631286Y-54180521D01*
X158631290Y-54180524D01*
X158768209Y-54259573D01*
X158768216Y-54259577D01*
X158920943Y-54300500D01*
X158920945Y-54300500D01*
X159079055Y-54300500D01*
X159079057Y-54300500D01*
X159231784Y-54259577D01*
X159368716Y-54180520D01*
X159480520Y-54068716D01*
X159559577Y-53931784D01*
X159600500Y-53779057D01*
X159600500Y-53620943D01*
X159559577Y-53468216D01*
X159511552Y-53385033D01*
X159480524Y-53331290D01*
X159480518Y-53331282D01*
X159368717Y-53219481D01*
X159368709Y-53219475D01*
X159231790Y-53140426D01*
X159231786Y-53140424D01*
X159231784Y-53140423D01*
X159079057Y-53099500D01*
X158920943Y-53099500D01*
X158768216Y-53140423D01*
X158768209Y-53140426D01*
X158631290Y-53219475D01*
X158631282Y-53219481D01*
X158519481Y-53331282D01*
X158519475Y-53331290D01*
X158440426Y-53468209D01*
X158440423Y-53468216D01*
X158399500Y-53620943D01*
X157600500Y-53620943D01*
X157559577Y-53468216D01*
X157511552Y-53385033D01*
X157480524Y-53331290D01*
X157480518Y-53331282D01*
X157368717Y-53219481D01*
X157368709Y-53219475D01*
X157231790Y-53140426D01*
X157231786Y-53140424D01*
X157231784Y-53140423D01*
X157079057Y-53099500D01*
X156920943Y-53099500D01*
X156768216Y-53140423D01*
X156768209Y-53140426D01*
X156631290Y-53219475D01*
X156631282Y-53219481D01*
X156519481Y-53331282D01*
X156519475Y-53331290D01*
X156440426Y-53468209D01*
X156440423Y-53468216D01*
X156399500Y-53620943D01*
X156124616Y-53620943D01*
X156096471Y-53515905D01*
X156076042Y-53480520D01*
X156017418Y-53378979D01*
X156017412Y-53378971D01*
X155905611Y-53267170D01*
X155905603Y-53267164D01*
X155768684Y-53188115D01*
X155768680Y-53188113D01*
X155768678Y-53188112D01*
X155615951Y-53147189D01*
X155457837Y-53147189D01*
X155305110Y-53188112D01*
X155305109Y-53188112D01*
X155185999Y-53256880D01*
X155118099Y-53273352D01*
X155052072Y-53250499D01*
X155008882Y-53195577D01*
X155000000Y-53149492D01*
X155000000Y-52825452D01*
X161857499Y-52825452D01*
X161857499Y-52983566D01*
X161888564Y-53099500D01*
X161898422Y-53136292D01*
X161898425Y-53136299D01*
X161977474Y-53273218D01*
X161977478Y-53273223D01*
X161977479Y-53273225D01*
X162089283Y-53385029D01*
X162089285Y-53385030D01*
X162089289Y-53385033D01*
X162226208Y-53464082D01*
X162226215Y-53464086D01*
X162378942Y-53505009D01*
X162378944Y-53505009D01*
X162537054Y-53505009D01*
X162537056Y-53505009D01*
X162689783Y-53464086D01*
X162826715Y-53385029D01*
X162938519Y-53273225D01*
X163017576Y-53136293D01*
X163058499Y-52983566D01*
X163058499Y-52920943D01*
X164399500Y-52920943D01*
X164399500Y-53079057D01*
X164437127Y-53219481D01*
X164440423Y-53231783D01*
X164440426Y-53231790D01*
X164519475Y-53368709D01*
X164519479Y-53368714D01*
X164519480Y-53368716D01*
X164631284Y-53480520D01*
X164631286Y-53480521D01*
X164631290Y-53480524D01*
X164692561Y-53515898D01*
X164768216Y-53559577D01*
X164920943Y-53600500D01*
X164920945Y-53600500D01*
X165079055Y-53600500D01*
X165079057Y-53600500D01*
X165231784Y-53559577D01*
X165368716Y-53480520D01*
X165480520Y-53368716D01*
X165559577Y-53231784D01*
X165600500Y-53079057D01*
X165600500Y-52920943D01*
X165559577Y-52768216D01*
X165504442Y-52672718D01*
X165480524Y-52631290D01*
X165480518Y-52631282D01*
X165368717Y-52519481D01*
X165368709Y-52519475D01*
X165231790Y-52440426D01*
X165231786Y-52440424D01*
X165231784Y-52440423D01*
X165079057Y-52399500D01*
X164920943Y-52399500D01*
X164768216Y-52440423D01*
X164768209Y-52440426D01*
X164631290Y-52519475D01*
X164631282Y-52519481D01*
X164519481Y-52631282D01*
X164519475Y-52631290D01*
X164440426Y-52768209D01*
X164440423Y-52768216D01*
X164399500Y-52920943D01*
X163058499Y-52920943D01*
X163058499Y-52825452D01*
X163017576Y-52672725D01*
X162987680Y-52620943D01*
X162938523Y-52535799D01*
X162938517Y-52535791D01*
X162826716Y-52423990D01*
X162826708Y-52423984D01*
X162689789Y-52344935D01*
X162689785Y-52344933D01*
X162689783Y-52344932D01*
X162537056Y-52304009D01*
X162378942Y-52304009D01*
X162226215Y-52344932D01*
X162226208Y-52344935D01*
X162089289Y-52423984D01*
X162089281Y-52423990D01*
X161977480Y-52535791D01*
X161977474Y-52535799D01*
X161898425Y-52672718D01*
X161898422Y-52672725D01*
X161857499Y-52825452D01*
X155000000Y-52825452D01*
X155000000Y-52472725D01*
X155019685Y-52405686D01*
X155072489Y-52359931D01*
X155141647Y-52349987D01*
X155185997Y-52365337D01*
X155278760Y-52418893D01*
X155431487Y-52459816D01*
X155431489Y-52459816D01*
X155589599Y-52459816D01*
X155589601Y-52459816D01*
X155742328Y-52418893D01*
X155879260Y-52339836D01*
X155991064Y-52228032D01*
X156070121Y-52091100D01*
X156111044Y-51938373D01*
X156111044Y-51780259D01*
X156070121Y-51627532D01*
X156066317Y-51620943D01*
X156599500Y-51620943D01*
X156599500Y-51779056D01*
X156640423Y-51931783D01*
X156640426Y-51931790D01*
X156719475Y-52068709D01*
X156719479Y-52068714D01*
X156719480Y-52068716D01*
X156831284Y-52180520D01*
X156831286Y-52180521D01*
X156831290Y-52180524D01*
X156952085Y-52250264D01*
X156968216Y-52259577D01*
X157120943Y-52300500D01*
X157120945Y-52300500D01*
X157279055Y-52300500D01*
X157279057Y-52300500D01*
X157431784Y-52259577D01*
X157568716Y-52180520D01*
X157680520Y-52068716D01*
X157759577Y-51931784D01*
X157800500Y-51779057D01*
X157800500Y-51620943D01*
X159399500Y-51620943D01*
X159399500Y-51779056D01*
X159440423Y-51931783D01*
X159440426Y-51931790D01*
X159519475Y-52068709D01*
X159519479Y-52068714D01*
X159519480Y-52068716D01*
X159631284Y-52180520D01*
X159631286Y-52180521D01*
X159631290Y-52180524D01*
X159752085Y-52250264D01*
X159768216Y-52259577D01*
X159920943Y-52300500D01*
X159920945Y-52300500D01*
X160079055Y-52300500D01*
X160079057Y-52300500D01*
X160231784Y-52259577D01*
X160368716Y-52180520D01*
X160480520Y-52068716D01*
X160559577Y-51931784D01*
X160600500Y-51779057D01*
X160600500Y-51620943D01*
X160559577Y-51468216D01*
X160559573Y-51468209D01*
X160480524Y-51331290D01*
X160480518Y-51331282D01*
X160368717Y-51219481D01*
X160368709Y-51219475D01*
X160231790Y-51140426D01*
X160231786Y-51140424D01*
X160231784Y-51140423D01*
X160079057Y-51099500D01*
X159920943Y-51099500D01*
X159768216Y-51140423D01*
X159768209Y-51140426D01*
X159631290Y-51219475D01*
X159631282Y-51219481D01*
X159519481Y-51331282D01*
X159519475Y-51331290D01*
X159440426Y-51468209D01*
X159440423Y-51468216D01*
X159399500Y-51620943D01*
X157800500Y-51620943D01*
X157759577Y-51468216D01*
X157759573Y-51468209D01*
X157680524Y-51331290D01*
X157680518Y-51331282D01*
X157568717Y-51219481D01*
X157568709Y-51219475D01*
X157431790Y-51140426D01*
X157431786Y-51140424D01*
X157431784Y-51140423D01*
X157279057Y-51099500D01*
X157120943Y-51099500D01*
X156968216Y-51140423D01*
X156968209Y-51140426D01*
X156831290Y-51219475D01*
X156831282Y-51219481D01*
X156719481Y-51331282D01*
X156719475Y-51331290D01*
X156640426Y-51468209D01*
X156640423Y-51468216D01*
X156599500Y-51620943D01*
X156066317Y-51620943D01*
X155991068Y-51490606D01*
X155991062Y-51490598D01*
X155879261Y-51378797D01*
X155879253Y-51378791D01*
X155742334Y-51299742D01*
X155742330Y-51299740D01*
X155742328Y-51299739D01*
X155589601Y-51258816D01*
X155431487Y-51258816D01*
X155278760Y-51299739D01*
X155278759Y-51299739D01*
X155185999Y-51353294D01*
X155118099Y-51369766D01*
X155052072Y-51346913D01*
X155008882Y-51291991D01*
X155000000Y-51245906D01*
X155000000Y-50903267D01*
X155019685Y-50836228D01*
X155072489Y-50790473D01*
X155141647Y-50780529D01*
X155185998Y-50795879D01*
X155296327Y-50859577D01*
X155449054Y-50900500D01*
X155449056Y-50900500D01*
X155607166Y-50900500D01*
X155607168Y-50900500D01*
X155759895Y-50859577D01*
X155896827Y-50780520D01*
X156008631Y-50668716D01*
X156087688Y-50531784D01*
X156128611Y-50379057D01*
X156128611Y-50220943D01*
X156087688Y-50068216D01*
X156087687Y-50068214D01*
X156085584Y-50060365D01*
X156087920Y-50059739D01*
X156081769Y-50002472D01*
X156113050Y-49939996D01*
X156173142Y-49904349D01*
X156203797Y-49900500D01*
X158924314Y-49900500D01*
X158991353Y-49920185D01*
G37*
%TD.AperFunction*%
%TD*%
M02*
